<svg id="Layer_1" data-name="Layer 1" xmlns="http://www.w3.org/2000/svg" viewBox="0 0 600 600"><defs><style>.cls-1{fill:#fff;}.cls-2{fill:#005db2;}</style></defs><circle class="cls-1" cx="300" cy="300" r="273.69686"/><circle class="cls-2" cx="300" cy="300" r="259.28595"/><circle class="cls-1" cx="300" cy="300" r="174.79958"/><path class="cls-1" d="M145.96367,185.71365a16.54057,16.54057,0,0,0,.94531-6.44824,13.02638,13.02638,0,0,0-1.79883-5.91406,16.22,16.22,0,0,0-4.78906-4.96973,12.5565,12.5565,0,0,0-11.68164-1.71,14.682,14.682,0,0,0-3.67725,1.93115,9.91271,9.91271,0,0,0-.32666-5.27685,12.33888,12.33888,0,0,0-4.8125-6.01661,11.99485,11.99485,0,0,0-6.61914-2.36132A11.743,11.743,0,0,0,106.493,156.993a23.59422,23.59422,0,0,0-6.36133,6.45117l-12.9961,18.52441L129.10039,211.409l13.416-19.124A26.73319,26.73319,0,0,0,145.96367,185.71365Zm-28.63281-12.03711a7.76839,7.76839,0,0,1-1.36328,3.02442l-5.25586,7.49414-8.334-5.84668,5.00586-7.13379a7.36365,7.36365,0,0,1,3.88477-3.17871,4.58126,4.58126,0,0,1,3.95312.80566,5.1666,5.1666,0,0,1,1.84766,2.14649A4.54978,4.54978,0,0,1,117.33086,173.67654Zm17.8789,9.77051a8.2693,8.2693,0,0,1-1.459,3.22559l-6.43359,9.17187-8.99219-6.30859,6.22461-8.87207a9.74379,9.74379,0,0,1,2.61133-2.63965,5.29675,5.29675,0,0,1,2.83593-.918,4.77241,4.77241,0,0,1,2.82227.9502,5.746,5.746,0,0,1,2.084,2.44726A5.09549,5.09549,0,0,1,135.20976,183.44705Z"/><path class="cls-1" d="M176.93047,155.56033l-9.166-13.07031q-4.07812-5.81542-7.3125-9.85352-.76538-.95544-1.54492-1.88232l19.92969,8.26416,3.957-2.77539-.86231-22.04114c.52686.91687,1.04151,1.84021,1.59473,2.74426q2.75683,4.50586,6.541,9.90235l9.168,13.07031,9.89258-6.9375L179.69414,91.0115l-8.75391,6.13868,1.5293,28.12548-25.75-11.13818-9.11328,6.3916,29.43164,41.96875Z"/><path class="cls-1" d="M269.84453,89.55838q-.12012,1.89843-.10938,3.35547.00879,1.45752.10938,2.63379c.02734.32568.05664.64062.08594.95288-.30371-.66651-.63086-1.343-.98828-2.033q-1.01661-1.95557-2.377-4.1377l-11.51953-18.29-9.74219,2.06934L242.06719,95.533q-.21973,2.14306-.25977,4.06054c-.02393,1.04566-.001,2.15479.04736,3.30152q-.58887-1.55493-1.34619-3.24976-.78516-1.74316-1.66406-3.42773l-13.12109-24.7627L213.33086,74.0867,239.02422,121.034l9.59765-2.03808,4.582-29.2793,16.90821,24.71485,9.3125-1.97754L283.81719,59.116l-12.10547,2.57128Z"/><polygon class="cls-1" points="384.526 118.558 362.884 111.234 375.794 73.083 364.001 69.093 347.571 117.648 381.005 128.963 384.526 118.558"/><path class="cls-1" d="M412.50859,136.0159l15.18848,11.01636L424.88945,157.118l10.19531,7.39453,13.79493-53.31836-8.53516-6.19141-46.51758,29.585,9.959,7.22265Zm17.416-11.65772q1.541-1.00635,2.998-2.07715c.86573-.63574,1.7378-1.28369,2.61426-1.93579-.34521,1.00977-.6914,2.02735-1.04394,3.07544q-.62111,1.85449-1.17969,3.62207-.55664,1.76661-.98633,3.35547l-1.94824,6.99964-9.53711-6.91736,5.98926-3.97876Q428.37774,125.365,429.92461,124.35818Z"/><path class="cls-1" d="M505.52031,173.82205a23.57078,23.57078,0,0,0-4.03516-8.11133l-13.29492-18.30957-41.47851,30.1211,13.72656,18.90234a26.73626,26.73626,0,0,0,5.0957,5.39551,16.52181,16.52181,0,0,0,5.791,2.98925,13.02751,13.02751,0,0,0,6.17773.21973,16.2138,16.2138,0,0,0,6.25586-2.91308,12.55316,12.55316,0,0,0,5.41211-10.49219,14.64539,14.64539,0,0,0-.63086-4.10535,9.91951,9.91951,0,0,0,5.0957,1.40515,12.33313,12.33313,0,0,0,7.25391-2.59765,12.00825,12.00825,0,0,0,4.38477-5.49121A11.74813,11.74813,0,0,0,505.52031,173.82205Zm-26.6582,15.69434a4.76775,4.76775,0,0,1-1.81641,2.35937,5.7337,5.7337,0,0,1-2.99219,1.17676,5.09111,5.09111,0,0,1-2.88281-.667,8.26756,8.26756,0,0,1-2.57617-2.42676l-6.584-9.06641,8.88868-6.4541,6.36718,8.76953a9.76434,9.76434,0,0,1,1.64844,3.32813A5.30355,5.30355,0,0,1,478.86211,189.51639Zm14.66211-14.76563a4.57678,4.57678,0,0,1-2.04493,3.47656,5.16829,5.16829,0,0,1-2.63085,1.05078,4.55569,4.55569,0,0,1-2.627-.62695,7.7444,7.7444,0,0,1-2.418-2.27051l-5.3789-7.40722,8.23633-5.98145,5.11914,7.05176A7.35589,7.35589,0,0,1,493.52422,174.75076Z"/><path class="cls-1" d="M192.60429,477.20682q-1.74022,2.44921-3.1914,4.56054-1.45312,2.11232-2.63281,3.9668-1.1836,1.856-2.26172,3.69434-1.08106,1.83837-2.17188,3.75683c-.16992.29883-.34033.61865-.51074.927l-.65723-40.54223-9.08007-6.43946-29.65625,41.81055,9.85546,6.99121,9.91407-13.97754q1.0576-1.49121,1.89648-2.73828.83788-1.24512,1.66992-2.543.82911-1.29639,1.78125-2.95508.95216-1.65819,2.16211-3.80859c.11133-.19763.23389-.41553.352-.625l.85889,39.86524,9.19922,6.52441L209.78789,473.864l-9.85547-6.99023Z"/><polygon class="cls-1" points="222.35 491.785 236.954 496.115 225.503 534.729 237.438 538.268 248.889 499.654 263.845 504.089 266.966 493.557 225.473 481.254 222.35 491.785"/><path class="cls-1" d="M315.67851,494.7742l.94336,30.88867a9.66881,9.66881,0,0,1-1.16406,5.05371,9.79648,9.79648,0,0,1-3.36914,3.62012,9.497,9.497,0,0,1-4.90039,1.43164,9.01877,9.01877,0,0,1-4.79688-1.13574,9.29451,9.29451,0,0,1-3.47461-3.41016,10.09839,10.09839,0,0,1-1.39843-4.97559l-.94532-30.88867-12.58984.38477.96484,31.54785a19.32015,19.32015,0,0,0,3.13672,10.30762,19.69281,19.69281,0,0,0,8.01368,6.89843,25.92,25.92,0,0,0,22.61718-.69238,19.69374,19.69374,0,0,0,7.57813-7.375,19.30849,19.30849,0,0,0,2.5-10.47949l-.96485-31.54785Z"/><path class="cls-1" d="M391.39336,505.3992a13.216,13.216,0,0,0-4.96485-3.00684,22.43626,22.43626,0,0,0-6.39453-1.13379,40.85855,40.85855,0,0,0-7.57617.45508,27.77812,27.77812,0,0,1-3.42969.41113,13.79011,13.79011,0,0,1-3.084-.14062,6.91105,6.91105,0,0,1-2.39258-.81641,3.20664,3.20664,0,0,1-1.4043-1.752,3.45669,3.45669,0,0,1,.02539-2.53711,5.71858,5.71858,0,0,1,1.791-2.27441,11.49034,11.49034,0,0,1,3.36523-1.78809,13.24842,13.24842,0,0,1,4.11914-.77344,14.653,14.653,0,0,1,4.22657.50977,16.11152,16.11152,0,0,1,4.19726,1.8418l4.748-9.55469a18.40644,18.40644,0,0,0-12.66016-3.75293,31.12135,31.12135,0,0,0-8.52734,1.9248,23.71314,23.71314,0,0,0-6.51367,3.53614,19.8817,19.8817,0,0,0-4.74024,5.11816,15.9335,15.9335,0,0,0-2.32031,6.11914,13.01686,13.01686,0,0,0,.65234,6.49512,15.724,15.724,0,0,0,2.92579,5.13574,12.96887,12.96887,0,0,0,4.48437,3.29492,17.82177,17.82177,0,0,0,6.07813,1.44238,39.99076,39.99076,0,0,0,7.7539-.28613q1.54688-.2417,3.06055-.35644a23.43475,23.43475,0,0,1,2.94141-.042,12.371,12.371,0,0,1,2.54492.37305,5.27136,5.27136,0,0,1,1.92968.94238,3.64168,3.64168,0,0,1,1.1836,1.67676,3.54875,3.54875,0,0,1,0,2.60547,5.45987,5.45987,0,0,1-1.83789,2.25195,11.77724,11.77724,0,0,1-3.207,1.69239,18.25885,18.25885,0,0,1-7.77149.99218q-4.05176-.33837-9.15039-3.72558l-4.21484,10.6084a29.06431,29.06431,0,0,0,7.14648,3.2373,23.36739,23.36739,0,0,0,7.97656.87891,31.976,31.976,0,0,0,8.99024-1.93457,25.98853,25.98853,0,0,0,9.10351-5.31836,16.37171,16.37171,0,0,0,4.78711-7.70215,15.3308,15.3308,0,0,0-.59961-9.3916A13.47864,13.47864,0,0,0,391.39336,505.3992Z"/><polygon class="cls-1" points="436.712 453.626 430.141 444.824 395.462 470.718 402.034 479.519 414.239 470.406 438.337 502.678 448.311 495.23 424.214 462.958 436.712 453.626"/><path class="cls-2" d="M299.9998,466.698c-91.917,0-166.69726-74.78028-166.69726-166.69825,0-91.917,74.78027-166.69726,166.69726-166.69726,91.918,0,166.69824,74.78027,166.69824,166.69726C466.698,391.91775,391.91777,466.698,299.9998,466.698Zm0-328.39551c-89.16015,0-161.69726,72.53711-161.69726,161.69726,0,89.16114,72.53711,161.69825,161.69726,161.69825,89.16114,0,161.69824-72.53711,161.69824-161.69825C461.698,210.83963,389.16094,138.30252,299.9998,138.30252Z"/><path class="cls-2" d="M299.9998,578.69705A278.69743,278.69743,0,0,1,102.93144,102.93143a278.69709,278.69709,0,0,1,394.1377,394.13671A276.87188,276.87188,0,0,1,299.9998,578.69705Zm0-547.39355A268.69712,268.69712,0,0,0,110.00273,489.99783,268.69713,268.69713,0,0,0,489.99785,110.00271,266.93961,266.93961,0,0,0,299.9998,31.3035Z"/><path class="cls-1" d="M135.1707,453.67361a225.6333,225.6333,0,0,1-44.96191-236.125l4.65234,1.83008A220.63708,220.63708,0,0,0,138.827,450.26346Z"/><path class="cls-1" d="M464.8289,453.67361l-3.65625-3.41015a220.63527,220.63527,0,0,0,43.9668-230.88477l4.65234-1.83008a225.6315,225.6315,0,0,1-44.96289,236.125Z"/><path class="cls-2" d="M293.68189,352.86155V428.436a.7402.7402,0,0,1-.77635.73851,127.07428,127.07428,0,0,1-78.47331-221.21138.73785.73785,0,0,1,1.22887.55052v91.88148a5.4295,5.4295,0,0,0,2.65941,4.66968l72.702,43.1271A5.42945,5.42945,0,0,1,293.68189,352.86155Z"/><path class="cls-2" d="M306.31811,352.86155V428.436a.7402.7402,0,0,0,.77635.73851,127.07428,127.07428,0,0,0,78.47331-221.21138.73785.73785,0,0,0-1.22887.55052v91.88148a5.4295,5.4295,0,0,1-2.65941,4.66968l-72.702,43.1271A5.42945,5.42945,0,0,0,306.31811,352.86155Z"/><path class="cls-2" d="M370.16909,210.88l-68.69326-39.66a2.95185,2.95185,0,0,0-2.95173,0l-68.693,39.66a2.95162,2.95162,0,0,0-1.476,2.55622V292.7563a2.95159,2.95159,0,0,0,1.476,2.55615l68.693,39.66a2.9519,2.9519,0,0,0,2.95173,0l68.69326-39.66a2.95131,2.95131,0,0,0,1.47572-2.55615V213.43622A2.95134,2.95134,0,0,0,370.16909,210.88Zm-59.28141,79.43746A11.34485,11.34485,0,1,1,300.185,275.84925,11.40166,11.40166,0,0,1,310.88768,290.31746Zm21.74258-19.73039c-4.34657,4.869-11.05218,5.14816-16.48554.68628-10.67668-8.76773-21.95633-8.74673-32.3561.06058-5.13129,4.34543-11.91378,4.1421-16.22263-.48652-4.40315-4.72965-4.05737-11.68867,1.00249-16.43317a45.25722,45.25722,0,0,1,62.59035-.25084C336.35042,258.93591,336.88367,265.82242,332.63026,270.58707Zm24.58228-24.76717a11.21343,11.21343,0,0,1-14.27082,3.21449,17.57989,17.57989,0,0,1-3.37152-2.55393c-23.35975-21.515-55.75729-21.53768-79.10789-.0343-7.34717,6.76605-17.54832,4.18126-19.70761-5.0242-1.05192-4.485.65728-8.06909,3.84133-11.14563,15.43448-14.91258,33.94956-22.25632,55.39122-22.61975,21.60455.35729,40.3491,7.76489,55.80558,23.06177C360.29143,235.17037,360.74523,241.127,357.21254,245.8199Z"/></svg>