<svg id="Layer_1" data-name="Layer 1" xmlns="http://www.w3.org/2000/svg" viewBox="0 0 1200 500"><defs><style>.cls-1{fill:#005db2;}.cls-2{fill:#fff;}</style></defs><rect class="cls-1" x="487.2887" y="239.46679" width="605.15956" height="126.98845" transform="translate(0.40473 -1.05311) rotate(0.07641)"/><path d="M551.71429,176.59151a25.17863,25.17863,0,0,0-6.33154-3.29785,17.10977,17.10977,0,0,0,7.09033-5.66992,21.28079,21.28079,0,0,0,3.72559-12.75782,20.67711,20.67711,0,0,0-3.2207-11.68359,20.25734,20.25734,0,0,0-9.53614-7.45215,40.702,40.702,0,0,0-15.41015-2.58887h-39.0293v88.416h40.293a46.12031,46.12031,0,0,0,12.69336-1.6416,28.56766,28.56766,0,0,0,10.042-5.05274,22.50358,22.50358,0,0,0,6.56836-8.39941A27.94048,27.94048,0,0,0,560.8725,194.78a21.65137,21.65137,0,0,0-9.15821-18.18848Zm-42.50292-25.51465h15.03125q5.55615,0,8.33593,2.33691a7.89858,7.89858,0,0,1,2.7793,6.37891,8.89439,8.89439,0,0,1-1.2002,4.73633,7.852,7.852,0,0,1-3.53613,3.03125,13.38164,13.38164,0,0,1-5.62109,1.07324H509.21137Zm29.17773,48.06055a8.78594,8.78594,0,0,1-3.85254,3.34765,14.25791,14.25791,0,0,1-5.999,1.13672H509.21137V184.67549H527.9057a16.81975,16.81975,0,0,1,6.31543,1.07325,9.12626,9.12626,0,0,1,4.10449,3.09472,8.22357,8.22357,0,0,1,1.45313,4.92578A9.88981,9.88981,0,0,1,538.3891,199.13741Z"/><path d="M622.07709,174.37105l-25.33447-41.22974H577.5434v88.416h20.84082V194.02217q0-12.25048-.56836-21.15722-.13478-2.10792-.31787-4.18994l19.95947,31.40966h8.33594l20.563-31.90454c-.16015,1.79-.30419,3.58252-.4165,5.38013q-.56836,9.09375-.56836,20.46191v27.53516h20.84082v-88.416h-18.4414Z"/><path d="M767.63715,179.49678q-.88478,3.15821-1.38868,5.62012-.50684,2.46387-.75781,4.48437c-.07031.55958-.13476,1.10181-.19726,1.63965-.27393-1.23388-.583-2.4934-.93946-3.78711q-1.01367-3.6621-2.52636-7.83105l-12.88379-34.98731H731.766l-13.13672,34.98731q-1.13671,3.5376-1.89453,6.75781c-.41259,1.75391-.77246,3.63281-1.10107,5.584q-.438-2.83374-1.10889-5.96289-.69581-3.2212-1.5791-6.37891L699.683,133.14131H677.83148l26.52539,88.416h16.92481l18.22168-47.7561,19.67187,47.7561h16.41992l26.52442-88.416h-21.3457Z"/><polygon points="875.756 133.141 854.284 133.141 854.284 221.557 915.164 221.557 915.164 202.611 875.756 202.611 875.756 133.141"/><path d="M954.9516,133.14131l-34.98731,88.416H941.184l6.31152-16.92578h32.36084l6.29346,16.92578h21.72559l-34.73535-88.416Zm-1.42773,55.32325,4.333-11.6211q1.00928-3.15526,2.14746-6.126,1.13673-2.96631,2.084-5.93653c.562-1.76172,1.125-3.54834,1.6875-5.34424.53906,1.7544,1.08935,3.531,1.65918,5.34424q1.00928,3.22119,2.02148,6.25293,1.00927,3.03076,2.02051,5.6836l4.36816,11.74707Z"/><path d="M1088.33148,184.35909a22.12808,22.12808,0,0,0-6.75781-7.76758,25.1788,25.1788,0,0,0-6.33154-3.29785,17.10984,17.10984,0,0,0,7.09033-5.66992,21.28085,21.28085,0,0,0,3.72558-12.75782,20.67711,20.67711,0,0,0-3.2207-11.68359,20.25736,20.25736,0,0,0-9.53613-7.45215,40.70207,40.70207,0,0,0-15.41016-2.58887h-39.02929v88.416h40.293a46.12025,46.12025,0,0,0,12.69336-1.6416,28.56763,28.56763,0,0,0,10.042-5.05274,22.50378,22.50378,0,0,0,6.56836-8.39941,27.94064,27.94064,0,0,0,2.27343-11.68359A22.25622,22.25622,0,0,0,1088.33148,184.35909Zm-49.26074-33.28223H1054.102q5.55615,0,8.33594,2.33691a7.8986,7.8986,0,0,1,2.77929,6.37891,8.89447,8.89447,0,0,1-1.20019,4.73633,7.852,7.852,0,0,1-3.53613,3.03125,13.38166,13.38166,0,0,1-5.6211,1.07324h-15.78906Zm29.17773,48.06055a8.786,8.786,0,0,1-3.85253,3.34765,14.258,14.258,0,0,1-5.999,1.13672h-19.32617V184.67549h18.69434a16.81983,16.81983,0,0,1,6.31543,1.07325,9.12632,9.12632,0,0,1,4.10449,3.09472,8.22363,8.22363,0,0,1,1.45312,4.92578A9.88972,9.88972,0,0,1,1068.24847,199.13741Z"/><path class="cls-2" d="M619.63178,284.75508q0,4.29163.05224,7.95215.05127,3.66357.20947,6.80127.156,3.13915.41895,6.17285.25927,3.0359.57519,6.17383c.04883.48877.11426,1.00293.1709,1.50293L586.77777,266.654h-15.9043V339.8962h17.26368V315.41255q0-2.6151-.05176-4.76123-.05419-2.14307-.15674-4.34179-.1062-2.198-.3667-4.918-.2622-2.71985-.62744-6.22583c-.03369-.32105-.0708-.6753-.10645-1.01563l33.95459,45.7461h16.11329V266.654H619.63178Z"/><polygon class="cls-2" points="670.377 282.349 692.141 282.349 692.141 339.896 709.928 339.896 709.928 282.349 732.215 282.349 732.215 266.654 670.377 266.654 670.377 282.349"/><path class="cls-2" d="M810.47894,310.80831a13.83752,13.83752,0,0,1-1.88281,7.16772,14.001,14.001,0,0,1-4.97021,5.022,13.57212,13.57212,0,0,1-7.063,1.8313,12.89559,12.89559,0,0,1-6.80127-1.8313,13.30019,13.30019,0,0,1-4.813-5.022,14.45682,14.45682,0,0,1-1.77832-7.16772V266.654H765.17328V311.7502a27.5821,27.5821,0,0,0,4.02783,14.85815,28.11783,28.11783,0,0,0,11.144,10.20093,37.03443,37.03443,0,0,0,32.33106,0,28.13271,28.13271,0,0,0,11.14355-10.20093,27.5867,27.5867,0,0,0,4.02832-14.85815V266.654H810.47894Z"/><path class="cls-2" d="M911.50238,302.12374a32.06438,32.06438,0,0,0-8.05664-4.60328,58.33074,58.33074,0,0,0-10.41113-3.03418,40.08767,40.08767,0,0,1-4.813-1.09887,19.75978,19.75978,0,0,1-4.08106-1.67432,9.88611,9.88611,0,0,1-2.8247-2.24951,4.57912,4.57912,0,0,1-1.04639-3.03418,4.94259,4.94259,0,0,1,1.25586-3.40063,8.16495,8.16495,0,0,1,3.50439-2.19678,16.41183,16.41183,0,0,1,5.38868-.78516,18.88913,18.88913,0,0,1,5.91211.9419,20.93831,20.93831,0,0,1,5.44091,2.72045,23.11569,23.11569,0,0,1,4.76123,4.49854l10.98584-10.56763a26.2871,26.2871,0,0,0-15.22363-11.14282,44.47968,44.47968,0,0,0-12.39892-1.51758,33.86336,33.86336,0,0,0-10.46338,1.62158,28.41682,28.41682,0,0,0-8.84131,4.60425,22.74871,22.74871,0,0,0-6.06885,7.115,18.61863,18.61863,0,0,0-2.25,9.05078,22.46525,22.46525,0,0,0,1.46582,8.31788,18.50151,18.50151,0,0,0,4.44629,6.59155,25.41771,25.41771,0,0,0,7.481,4.866,57.05394,57.05394,0,0,0,10.56836,3.34766q2.19652.41969,4.28955.99414a33.40949,33.40949,0,0,1,3.97607,1.3606,17.51885,17.51885,0,0,1,3.24365,1.72632,7.55945,7.55945,0,0,1,2.145,2.19677,5.22754,5.22754,0,0,1,.78418,2.8252,5.08157,5.08157,0,0,1-1.25586,3.50561,7.78929,7.78929,0,0,1-3.55713,2.14478,16.84811,16.84811,0,0,1-5.127.73242,26.08406,26.08406,0,0,1-10.93408-2.40674q-5.28369-2.40527-10.51465-9.4165l-10.77734,12.2417a41.49015,41.49015,0,0,0,8.05615,7.79516,33.3661,33.3661,0,0,0,10.30664,5.02222,45.66213,45.66213,0,0,0,13.02686,1.72608,37.14317,37.14317,0,0,0,14.80517-2.77222A23.384,23.384,0,0,0,914.85,330.113a21.90394,21.90394,0,0,0,3.71435-12.92212,19.30752,19.30752,0,0,0-1.83105-8.63159A18.90026,18.90026,0,0,0,911.50238,302.12374Z"/><polygon class="cls-2" points="947.023 266.654 947.023 282.349 968.787 282.349 968.787 339.896 986.574 339.896 986.574 282.349 1008.861 282.349 1008.861 266.654 947.023 266.654"/><path class="cls-1" d="M262.79683,318.75383v98.29508a.96272.96272,0,0,1-1.00975.96052,165.27785,165.27785,0,0,1-102.0655-287.71629.95969.95969,0,0,1,1.59833.716V250.51386a7.06179,7.06179,0,0,0,3.45893,6.07358l94.55907,56.09281A7.06182,7.06182,0,0,1,262.79683,318.75383Z"/><path class="cls-1" d="M279.232,318.75383v98.29508a.96273.96273,0,0,0,1.00976.96052,165.27785,165.27785,0,0,0,102.0655-287.71629.95969.95969,0,0,0-1.59833.716V250.51386a7.06179,7.06179,0,0,1-3.45893,6.07358l-94.55907,56.09281A7.06183,7.06183,0,0,0,279.232,318.75383Z"/><path class="cls-1" d="M362.27912,134.087,272.93394,82.50358a3.8393,3.8393,0,0,0-3.83913,0L179.75,134.087a3.839,3.839,0,0,0-1.91975,3.32472V240.57856a3.83893,3.83893,0,0,0,1.91975,3.32462l89.34482,51.58342a3.8393,3.8393,0,0,0,3.83913,0l89.34518-51.58342a3.83857,3.83857,0,0,0,1.91938-3.32462V137.41172A3.83862,3.83862,0,0,0,362.27912,134.087ZM285.17537,237.40651A14.75557,14.75557,0,1,1,271.255,218.58858,14.82949,14.82949,0,0,1,285.17537,237.40651Zm28.27926-25.66213c-5.65333,6.33276-14.37491,6.6959-21.44175.8926-13.88651-11.40366-28.55727-11.37634-42.08362.07879-6.674,5.65184-15.49553,5.38739-21.09979-.63279-5.72692-6.15157-5.27718-15.20274,1.30387-21.37363a59.853,59.853,0,0,1,40.70058-16.50512c15.7.35839,29.272,5.66726,40.7069,16.17887C318.29322,196.59042,318.98678,205.54728,313.45463,211.74438Zm31.97268-32.21317a14.58462,14.58462,0,0,1-18.56118,4.1809,22.86548,22.86548,0,0,1-4.38514-3.32175c-30.38262-27.98321-72.52014-28.01276-102.89086-.0446-9.556,8.80019-22.824,5.4383-25.63249-6.53468-1.36817-5.83341.85487-10.495,4.99618-14.49645,20.07469-19.3959,44.15614-28.94745,72.044-29.42014,28.09973.4647,52.47965,10.09932,72.58295,29.99505C349.43184,165.68,350.02208,173.42741,345.42731,179.53121Z"/></svg>