<svg id="Layer_1" data-name="Layer 1" xmlns="http://www.w3.org/2000/svg" viewBox="0 0 600 600"><defs><style>.cls-1{fill:#005db2;}</style></defs><path class="cls-1" d="M289.20458,390.32174v129.13a1.26473,1.26473,0,0,1-1.32651,1.26183C173.28076,514.76771,82.18456,419.9609,82.18456,303.88839a216.59147,216.59147,0,0,1,71.6103-161.147,1.26073,1.26073,0,0,1,2.09972.94065v156.993a9.27706,9.27706,0,0,0,4.544,7.97884l124.222,73.689A9.27707,9.27707,0,0,1,289.20458,390.32174Z"/><path class="cls-1" d="M310.79542,390.32174v129.13a1.26473,1.26473,0,0,0,1.32651,1.26183c114.59731-5.94588,205.69351-100.75269,205.69351-216.8252a216.59147,216.59147,0,0,0-71.6103-161.147,1.26073,1.26073,0,0,0-2.09972.94065v156.993a9.27706,9.27706,0,0,1-4.544,7.97884l-124.222,73.689A9.27707,9.27707,0,0,0,310.79542,390.32174Z"/><path class="cls-1" d="M419.89423,147.72537l-117.37256-67.765a5.04369,5.04369,0,0,0-5.04346,0l-117.37207,67.765a5.04325,5.04325,0,0,0-2.522,4.36768v135.53a5.0432,5.0432,0,0,0,2.522,4.36755l117.37207,67.765a5.04369,5.04369,0,0,0,5.04346,0l117.37256-67.765a5.04276,5.04276,0,0,0,2.52148-4.36755v-135.53A5.04282,5.04282,0,0,0,419.89423,147.72537ZM318.60321,283.456a19.48146,19.48146,0,0,1-13.562,13.35877c-12.80029,3.47461-24.74268-6.811-24.45068-19.18213a19.65065,19.65065,0,0,1,19.72558-18.89771C312.47968,258.94168,322.19647,270.90286,318.60321,283.456Zm37.15039-33.71228c-7.42676,8.31934-18.88428,8.79639-28.168,1.17261-18.24267-14.981-37.51562-14.94507-55.28515.10351-8.76758,7.42481-20.35645,7.0774-27.71875-.83129-7.52344-8.0813-6.93262-19.97181,1.71289-28.0785,15.06445-14.125,33.063-21.171,53.46826-21.68274,20.625.47083,38.45459,7.44507,53.47656,21.25416C362.11005,229.836,363.02118,241.60257,355.7536,249.74368ZM397.756,207.42532a19.15978,19.15978,0,0,1-24.38379,5.49243,30.03781,30.03781,0,0,1-5.76074-4.36377c-39.91357-36.76147-95.26953-36.80029-135.16748-.05859-12.55371,11.56079-29.98389,7.14429-33.67334-8.58459-1.79736-7.66333,1.12305-13.78724,6.56348-19.04395,26.37207-25.48035,58.00781-38.0282,94.644-38.64917,36.91455.61047,68.94238,13.26746,95.35205,39.40442C403.01678,189.229,403.79218,199.40677,397.756,207.42532Z"/></svg>