<svg id="Layer_1" data-name="Layer 1" xmlns="http://www.w3.org/2000/svg" viewBox="0 0 600 895.26841"><defs><style>.cls-1{fill:#005db2;}.cls-2{fill:#fff;}</style></defs><path class="cls-1" d="M288.89235,437.76708v132.8647a1.3013,1.3013,0,0,1-1.36487,1.29833C169.6158,565.81226,75.88492,468.26345,75.88492,348.83391a222.85567,222.85567,0,0,1,73.68141-165.80767,1.29719,1.29719,0,0,1,2.16045.96785V345.52765a9.54536,9.54536,0,0,0,4.6754,8.2096L284.217,429.55748A9.54536,9.54536,0,0,1,288.89235,437.76708Z"/><path class="cls-1" d="M311.10765,437.76708v132.8647a1.3013,1.3013,0,0,0,1.36487,1.29833c117.91168-6.11785,211.64256-103.66666,211.64256-223.0962a222.85567,222.85567,0,0,0-73.68141-165.80767,1.29719,1.29719,0,0,0-2.16045.96785V345.52765a9.54536,9.54536,0,0,1-4.6754,8.2096L315.78305,429.55748A9.54536,9.54536,0,0,0,311.10765,437.76708Z"/><path class="cls-1" d="M423.36179,188.15436,302.5946,118.42946a5.18953,5.18953,0,0,0-5.18932,0l-120.7667,69.7249a5.18913,5.18913,0,0,0-2.59491,4.494V332.09817a5.18908,5.18908,0,0,0,2.59491,4.49388l120.7667,69.7249a5.18953,5.18953,0,0,0,5.18932,0L423.36179,336.592a5.18862,5.18862,0,0,0,2.59441-4.49388V192.64836A5.18866,5.18866,0,0,0,423.36179,188.15436ZM319.14125,327.81054A20.04489,20.04489,0,0,1,305.187,341.55566c-13.1705,3.57511-25.45828-7.008-25.15784-19.73691a20.219,20.219,0,0,1,20.29608-19.44426C312.84061,302.58726,322.83844,314.89438,319.14125,327.81054Zm38.22485-34.6873c-7.64155,8.55994-19.43045,9.05079-28.98264,1.20652-18.77029-15.41424-38.60065-15.37731-56.88411.10651-9.02115,7.63954-20.94519,7.28208-28.52042-.85534-7.741-8.315-7.13313-20.54943,1.76243-28.89058,15.50014-14.53352,34.01923-21.78333,55.01466-22.30984,21.22151.48444,39.56677,7.66039,55.02321,21.86886C363.90639,272.63975,364.84387,284.74667,357.3661,293.12324ZM400.58333,249.581a19.71391,19.71391,0,0,1-25.089,5.65128,30.90662,30.90662,0,0,1-5.92736-4.49c-41.06795-37.82468-98.0249-37.86462-139.07678-.06028-12.91678,11.89515-30.85107,7.35091-34.64723-8.83288-1.84935-7.885,1.15553-14.186,6.7533-19.59473,27.1348-26.21729,59.68551-39.128,97.38133-39.767,37.98219.62813,70.93633,13.65118,98.10981,40.54407C405.99622,230.85839,406.794,241.33048,400.58333,249.581Z"/><rect class="cls-1" x="71.07024" y="697.73865" width="457.85952" height="91.79245"/><path d="M119.47214,646.3383A19.16472,19.16472,0,0,0,114.644,643.852a12.96192,12.96192,0,0,0,5.40234-4.31152,16.13053,16.13053,0,0,0,2.8252-9.6709,15.67335,15.67335,0,0,0-2.44238-8.85645,15.34551,15.34551,0,0,0-7.22852-5.64844A30.84393,30.84393,0,0,0,101.52,613.40177H71.93405v67.02246h30.543a34.92305,34.92305,0,0,0,9.623-1.24511,21.64847,21.64847,0,0,0,7.61133-3.8291,17.04546,17.04546,0,0,0,4.97852-6.36719,21.174,21.174,0,0,0,1.72363-8.85645,16.415,16.415,0,0,0-6.9414-13.78808ZM87.25339,626.99748H98.64694q4.21289,0,6.31934,1.77148a5.98765,5.98765,0,0,1,2.10644,4.835,6.74957,6.74957,0,0,1-.90918,3.59082,5.95844,5.95844,0,0,1-2.68066,2.29785,10.14926,10.14926,0,0,1-4.26074.81348H87.25339Zm22.11718,36.43164a6.65963,6.65963,0,0,1-2.91992,2.53711,10.80083,10.80083,0,0,1-4.54785.8623H87.25339v-14.3623h14.17089a12.76727,12.76727,0,0,1,4.78711.81347,6.92317,6.92317,0,0,1,3.11133,2.34571,6.23732,6.23732,0,0,1,1.10156,3.73437A7.49208,7.49208,0,0,1,109.37057,663.42912Z"/><path d="M172.80905,644.65544,153.605,613.40177H139.05124v67.02246h15.79785v-20.873q0-9.28565-.43067-16.03711-.1018-1.59815-.24072-3.17676l15.1294,23.80957h6.31933l15.5874-24.18384c-.12158,1.35669-.231,2.71509-.31591,4.0774q-.43067,6.89355-.43067,15.51074v20.873H206.2651V613.40177H192.28659Z"/><path d="M283.14889,648.54045q-.67089,2.395-1.05371,4.26074-.38379,1.86766-.57422,3.39941c-.05322.42407-.10205.83472-.14941,1.24243-.20752-.93506-.4419-1.88965-.71191-2.87036q-.76758-2.77587-1.915-5.93652L268.978,622.11466H255.95651l-9.957,26.52149q-.8628,2.68212-1.43652,5.123c-.3125,1.3291-.58545,2.75292-.83448,4.23168q-.33252-2.14746-.84131-4.51977-.52734-2.44043-1.19628-4.835l-10.05372-35.23438H215.07272l20.10742,67.02246h12.8291l13.8125-36.20092,14.91211,36.20092h12.44727l20.10644-67.02246H293.10592Z"/><polygon points="365.107 613.402 348.831 613.402 348.831 680.424 394.98 680.424 394.98 666.062 365.107 666.062 365.107 613.402"/><path d="M425.13913,613.40177l-26.52149,67.02246h16.085l4.78418-12.83007H444.018l4.77051,12.83007h16.46875l-26.33008-67.02246Zm-1.08252,41.93653,3.28467-8.8086q.76611-2.39208,1.62793-4.64355.86132-2.24855,1.58007-4.5c.42676-1.33643.853-2.69165,1.27979-4.05469.41016,1.333.82422,2.67578,1.25732,4.05469q.76466,2.44189,1.53223,4.73926.76466,2.29833,1.53125,4.30859l3.311,8.9043Z"/><path d="M526.24655,652.227a16.77522,16.77522,0,0,0-5.12207-5.88867,19.16455,19.16455,0,0,0-4.82813-2.48633,12.96189,12.96189,0,0,0,5.40235-4.31152,16.13059,16.13059,0,0,0,2.82519-9.6709,15.67335,15.67335,0,0,0-2.44238-8.85645,15.34546,15.34546,0,0,0-7.22852-5.64844,30.84393,30.84393,0,0,0-11.68066-1.96289H473.58639v67.02246h30.543a34.92307,34.92307,0,0,0,9.62305-1.24511,21.64856,21.64856,0,0,0,7.61133-3.8291,17.04554,17.04554,0,0,0,4.97851-6.36719,21.17382,21.17382,0,0,0,1.72364-8.85645A16.86864,16.86864,0,0,0,526.24655,652.227Zm-37.34082-25.22949h11.39355q4.2129,0,6.31934,1.77148a5.98765,5.98765,0,0,1,2.10644,4.835,6.74966,6.74966,0,0,1-.90917,3.59082,5.95847,5.95847,0,0,1-2.68067,2.29785,10.14923,10.14923,0,0,1-4.26074.81348H488.90573Zm22.11719,36.43164a6.65971,6.65971,0,0,1-2.91993,2.53711,10.80076,10.80076,0,0,1-4.54785.8623H488.90573v-14.3623h14.1709a12.7673,12.7673,0,0,1,4.78711.81347,6.9232,6.9232,0,0,1,3.11132,2.34571,6.23732,6.23732,0,0,1,1.10157,3.73437A7.49216,7.49216,0,0,1,511.02292,663.42912Z"/><path class="cls-2" d="M184.97116,727.32292q0,3.84521.04687,7.125.04688,3.28271.1875,6.09375.14063,2.8125.375,5.53027.23292,2.72022.51563,5.53125c.04394.438.10254.89844.15332,1.34668l-30.71484-41.8457h-14.25v65.624h15.46875v-21.9375q0-2.34228-.04688-4.26563-.04835-1.92041-.14062-3.89062-.09522-1.96875-.32813-4.40527-.23585-2.4375-.5625-5.57813c-.03027-.28784-.06348-.60522-.09521-.91016l30.42236,40.98731h14.4375v-65.624H184.97116Z"/><polygon class="cls-2" points="211.689 725.167 231.189 725.167 231.189 776.728 247.125 776.728 247.125 725.167 267.094 725.167 267.094 711.104 211.689 711.104 211.689 725.167"/><path class="cls-2" d="M318.46823,750.66569a12.39085,12.39085,0,0,1-1.6875,6.42187,12.53741,12.53741,0,0,1-4.45313,4.5,12.1558,12.1558,0,0,1-6.32812,1.64063,11.549,11.549,0,0,1-6.09277-1.64063,11.91025,11.91025,0,0,1-4.3125-4.5,12.94772,12.94772,0,0,1-1.59375-6.42187V711.10417h-16.125v40.40527a24.69754,24.69754,0,0,0,3.60937,13.3125,25.19339,25.19339,0,0,0,9.98438,9.14062,33.18041,33.18041,0,0,0,28.96777,0,25.20642,25.20642,0,0,0,9.98437-9.14062,24.71457,24.71457,0,0,0,3.60938-13.3125V711.10417h-15.5625Z"/><path class="cls-2" d="M390.23288,742.88542a28.71114,28.71114,0,0,0-7.21875-4.125,52.26765,52.26765,0,0,0-9.32813-2.71875,35.83659,35.83659,0,0,1-4.31152-.98438,17.74842,17.74842,0,0,1-3.65625-1.5,8.85945,8.85945,0,0,1-2.53125-2.01562,4.10051,4.10051,0,0,1-.9375-2.71875,4.42962,4.42962,0,0,1,1.125-3.04688,7.32036,7.32036,0,0,1,3.14062-1.96875,14.70873,14.70873,0,0,1,4.82813-.70312,16.92657,16.92657,0,0,1,5.2959.84375,18.75993,18.75993,0,0,1,4.875,2.4375,20.6515,20.6515,0,0,1,4.26562,4.03125l9.84375-9.46875a23.55265,23.55265,0,0,0-13.64062-9.98438,39.87568,39.87568,0,0,0-11.1084-1.35937,30.34243,30.34243,0,0,0-9.375,1.45312,25.45686,25.45686,0,0,0-7.92188,4.125,20.37513,20.37513,0,0,0-5.4375,6.375,16.67939,16.67939,0,0,0-2.01562,8.10938,20.1386,20.1386,0,0,0,1.3125,7.45312,16.59142,16.59142,0,0,0,3.98437,5.90625,22.765,22.765,0,0,0,6.70313,4.3584,51.07919,51.07919,0,0,0,9.46875,3q1.96875.37647,3.84375.89062a30.01263,30.01263,0,0,1,3.56152,1.21875,15.73663,15.73663,0,0,1,2.90625,1.54688,6.77114,6.77114,0,0,1,1.92188,1.96875,4.67727,4.67727,0,0,1,.70312,2.53125,4.55315,4.55315,0,0,1-1.125,3.14062,6.98007,6.98007,0,0,1-3.1875,1.92188,15.07177,15.07177,0,0,1-4.59277.65625,23.37087,23.37087,0,0,1-9.79688-2.15625q-4.73583-2.15478-9.42187-8.4375l-9.65625,10.96875a37.1357,37.1357,0,0,0,7.21875,6.98437,29.8814,29.8814,0,0,0,9.23437,4.5,40.91034,40.91034,0,0,0,11.67188,1.54688,33.27535,33.27535,0,0,0,13.26465-2.48438,20.95005,20.95005,0,0,0,9.09375-7.21875,19.627,19.627,0,0,0,3.32812-11.57812,17.30639,17.30639,0,0,0-1.64062-7.73438A16.93207,16.93207,0,0,0,390.23288,742.88542Z"/><polygon class="cls-2" points="403.31 711.104 403.31 725.167 422.81 725.167 422.81 776.728 438.747 776.728 438.747 725.167 458.715 725.167 458.715 711.104 403.31 711.104"/></svg>