<svg id="Layer_1" data-name="Layer 1" xmlns="http://www.w3.org/2000/svg" viewBox="0 0 1941.3834 500"><defs><style>.cls-1{fill:#005db2;}.cls-2{fill:#fff;}</style></defs><path d="M459.75186,192.77736a18.12861,18.12861,0,0,0-4.56689-2.35986,12.27273,12.27273,0,0,0,5.11865-4.07373,15.26653,15.26653,0,0,0,2.68652-9.15039,14.83291,14.83291,0,0,0-2.30078-8.38574,14.52109,14.52109,0,0,0-6.834-5.35547,29.19871,29.19871,0,0,0-11.05469-1.87305l-28.00391-.03711-.084,63.43848,28.91016.03808a33.0861,33.0861,0,0,0,9.1084-1.165,20.50232,20.50232,0,0,0,7.21-3.61621,16.14043,16.14043,0,0,0,4.7207-6.0205,20.05483,20.05483,0,0,0,1.64258-8.38086,15.5357,15.5357,0,0,0-6.55274-13.0586Zm-30.4707-18.34765,10.78418.01464q3.9873.00587,5.97852,1.68457a5.66522,5.66522,0,0,1,1.9873,4.57911,6.37951,6.37951,0,0,1-.86523,3.39746,5.63322,5.63322,0,0,1-2.541,2.17187,9.59565,9.59565,0,0,1-4.0332.76465l-11.32813-.01562Zm20.8877,34.51171a6.30232,6.30232,0,0,1-2.76758,2.39747,10.20712,10.20712,0,0,1-4.30567.80957l-13.86523-.01856.01855-13.59375,13.41211.01856a12.05942,12.05942,0,0,1,4.53028.77636,6.55153,6.55153,0,0,1,2.94238,2.22461,5.90063,5.90063,0,0,1,1.03711,3.53516A7.09274,7.09274,0,0,1,450.16886,208.94142Z"/><path d="M505.04093,175.98146a14.83154,14.83154,0,0,0-7.16309,1.80274,19.54459,19.54459,0,0,0-7.05078,6.54272L490.539,176.959l-13.77539-.01855-.06347,48.12207,14.59082.01953.03125-24.10645a10.54093,10.54093,0,0,1,.68554-3.89648,9.44023,9.44023,0,0,1,1.86133-2.9873,7.78828,7.78828,0,0,1,2.90332-1.94434,9.9991,9.9991,0,0,1,3.71582-.67481,14.74483,14.74483,0,0,1,3.48926.41114,9.01135,9.01135,0,0,1,2.6709,1.04687l4.00879-16.03515a25.00344,25.00344,0,0,0-2.58106-.63868A16.02574,16.02574,0,0,0,505.04093,175.98146Z"/><path d="M552.0253,179.30666a29.01393,29.01393,0,0,0-26.73437-.03516,24.62783,24.62783,0,0,0-9.25586,8.86817,26.06226,26.06226,0,0,0-.03418,25.73828,24.6365,24.6365,0,0,0,9.23242,8.89355,29.01385,29.01385,0,0,0,26.73437.03516,24.28589,24.28589,0,0,0,9.21094-8.86816,26.37958,26.37958,0,0,0,.03418-25.73829A24.29411,24.29411,0,0,0,552.0253,179.30666Zm-3.61621,28.17969a11.3762,11.3762,0,0,1-3.99414,4.43554,10.49522,10.49522,0,0,1-5.80274,1.62305,10.71456,10.71456,0,0,1-5.84277-1.63867,11.22585,11.22585,0,0,1-4.02637-4.44629,13.06632,13.06632,0,0,1-1.35156-6.43652,13.3387,13.3387,0,0,1,1.36817-6.47754,11.1646,11.1646,0,0,1,4.03808-4.48047,10.7157,10.7157,0,0,1,5.84863-1.62305,10.47733,10.47733,0,0,1,5.79688,1.63867,11.28766,11.28766,0,0,1,3.98242,4.49121,13.35591,13.35591,0,0,1,1.35059,6.48145A13.11308,13.11308,0,0,1,548.40909,207.48635Z"/><path d="M606.62247,182.95217a18.38981,18.38981,0,0,0-2.98682-3.07813,16.5575,16.5575,0,0,0-5.02539-2.77051,19.00017,19.00017,0,0,0-6.29687-1.00586,19.842,19.842,0,0,0-11.15235,3.20215,22.2081,22.2081,0,0,0-7.71484,8.8252,30.97634,30.97634,0,0,0-.03418,25.7832,22.539,22.539,0,0,0,7.55566,8.89258,19.7403,19.7403,0,0,0,16.98926,2.24219,19.66312,19.66312,0,0,0,5.25977-2.71192,18.10743,18.10743,0,0,0,3.08545-2.835l-.00733,5.73926,14.68164.01953.06348-48.12207-14.41016-.01855Zm-5.02393,29.31738a10.64577,10.64577,0,0,1-5.80176,1.5332,10.25321,10.25321,0,0,1-5.6621-1.54883,10.36425,10.36425,0,0,1-3.75489-4.39941,17.44229,17.44229,0,0,1,.01856-13.50391,10.66567,10.66567,0,0,1,3.7666-4.43554,10.0425,10.0425,0,0,1,5.666-1.57813,10.43649,10.43649,0,0,1,5.79786,1.59375,10.56317,10.56317,0,0,1,3.80078,4.44532,17.45375,17.45375,0,0,1-.01856,13.5039A10.24007,10.24007,0,0,1,601.59854,212.26955Z"/><path d="M666.25577,181.907a17.211,17.211,0,0,0-2.35352-1.9978,20.9102,20.9102,0,0,0-5.43457-2.72656,20.67657,20.67657,0,0,0-17.49414,2.24316,22.46476,22.46476,0,0,0-7.71484,8.916,31.07932,31.07932,0,0,0-.03418,25.82812,22.22714,22.22714,0,0,0,7.64648,8.89063,19.606,19.606,0,0,0,11.09668,3.23339,21.20293,21.20293,0,0,0,6.38965-.94433,20.65661,20.65661,0,0,0,5.39649-2.5293,15.44153,15.44153,0,0,0,3.146-2.77148l.38526,5.26855,13.5039.01758.08887-67.06348L666.287,158.252Zm-.98731,26.18872a10.51669,10.51669,0,0,1-3.7666,4.52637,10.223,10.223,0,0,1-5.80175,1.62305,9.99539,9.99539,0,0,1-5.75293-1.63868,10.93287,10.93287,0,0,1-3.75489-4.53613,15.87911,15.87911,0,0,1-1.35058-6.79883,16.1022,16.1022,0,0,1,1.36914-6.88574,10.93621,10.93621,0,0,1,3.7666-4.52637,9.98522,9.98522,0,0,1,5.75683-1.624,10.20505,10.20505,0,0,1,5.79786,1.63965,10.52424,10.52424,0,0,1,3.75488,4.53613,16.60148,16.60148,0,0,1,1.30469,6.88965A16.33566,16.33566,0,0,1,665.26846,208.09572Z"/><path d="M732.73136,179.502a19.61432,19.61432,0,0,0-11.09668-3.23144,18.774,18.774,0,0,0-5.80176.89843,20.43748,20.43748,0,0,0-5.16895,2.48536,16.78715,16.78715,0,0,0-2.99316,2.543l.03125-23.88964-14.59082-.01954-.08887,66.97266,13.50293.01758.38281-5.13818a16.101,16.101,0,0,0,3.38086,2.87744,21.7497,21.7497,0,0,0,11.64063,3.36914,19.08578,19.08578,0,0,0,10.87988-3.20313,22.06824,22.06824,0,0,0,7.5791-8.87109,29.28159,29.28159,0,0,0,2.78125-13.001,28.691,28.691,0,0,0-2.792-12.918A22.28651,22.28651,0,0,0,732.73136,179.502Zm-5.11329,28.541a10.54936,10.54936,0,0,1-3.7666,4.48047,10.04292,10.04292,0,0,1-5.71094,1.624,10.21358,10.21358,0,0,1-5.79882-1.63965,10.885,10.885,0,0,1-3.79981-4.49023,17.328,17.328,0,0,1,.01856-13.458,10.2078,10.2078,0,0,1,3.81152-4.43652,10.66318,10.66318,0,0,1,5.80273-1.53223,10.49553,10.49553,0,0,1,5.707,1.54785,9.93576,9.93576,0,0,1,3.75488,4.44629,17.88725,17.88725,0,0,1-.01856,13.458Z"/><path d="M785.24356,183.1902a18.38453,18.38453,0,0,0-2.98681-3.07885,16.57629,16.57629,0,0,0-5.02539-2.76953,19,19,0,0,0-6.29688-1.00586,19.842,19.842,0,0,0-11.15234,3.20214,22.2082,22.2082,0,0,0-7.71485,8.8252,30.97635,30.97635,0,0,0-.03418,25.7832,22.539,22.539,0,0,0,7.55567,8.89258,19.74028,19.74028,0,0,0,16.98925,2.24219,19.69091,19.69091,0,0,0,5.25977-2.71192,18.09,18.09,0,0,0,3.08545-2.83544l-.00732,5.73974,14.68164.01953.06347-48.12207-14.41015-.01855Zm-5.02392,29.31763a10.64582,10.64582,0,0,1-5.80176,1.5332,10.25332,10.25332,0,0,1-5.66211-1.54882,10.36419,10.36419,0,0,1-3.75488-4.39942,17.44221,17.44221,0,0,1,.01855-13.5039,10.66571,10.66571,0,0,1,3.7666-4.43555,10.04253,10.04253,0,0,1,5.666-1.57813,10.43646,10.43646,0,0,1,5.79785,1.59375,10.56317,10.56317,0,0,1,3.80078,4.44532,17.45381,17.45381,0,0,1-.01855,13.5039A10.24013,10.24013,0,0,1,780.21964,212.50783Z"/><path d="M850.32022,178.66115a17.575,17.575,0,0,0-9.15039-2.23144,18.34772,18.34772,0,0,0-7.61621,1.62109,19.85783,19.85783,0,0,0-6.21289,4.2959c-.31006.32031-.583.6543-.85937.9873l-.26661-5.92675-13.77539-.01856-.06347,48.12207q1.17627.00147,2.99023.00391,1.812.00145,4.35059.00586l7.15918.00879L826.914,196.71a7.38526,7.38526,0,0,1,.6836-3.1709,8.707,8.707,0,0,1,1.86132-2.58008,7.86452,7.86452,0,0,1,2.81153-1.71777,10.34572,10.34572,0,0,1,3.53613-.584,7.66074,7.66074,0,0,1,4.12207.86621,5.79425,5.79425,0,0,1,2.48828,2.85839,12.24533,12.24533,0,0,1,.8086,4.80372l-.03711,28.36621,14.59082.01953.03906-29.544a26.99173,26.99173,0,0,0-1.88867-10.74219A13.85519,13.85519,0,0,0,850.32022,178.66115Z"/><path d="M902.42471,182.22194a17.24826,17.24826,0,0,0-2.35351-1.99829,20.908,20.908,0,0,0-5.43457-2.72558,20.66983,20.66983,0,0,0-17.49414,2.24218,22.46779,22.46779,0,0,0-7.71485,8.917,31.07942,31.07942,0,0,0-.03418,25.82812A22.23366,22.23366,0,0,0,877.04,223.376a19.61281,19.61281,0,0,0,11.09668,3.23242,21.23347,21.23347,0,0,0,6.38965-.94336,20.65838,20.65838,0,0,0,5.39648-2.53028,15.4391,15.4391,0,0,0,3.14649-2.77148l.38476,5.26855,13.50391.01856.08886-67.06348L902.456,158.5674Zm-.9873,26.18823a10.51683,10.51683,0,0,1-3.7666,4.52637,10.21543,10.21543,0,0,1-5.80176,1.623,9.98814,9.98814,0,0,1-5.75293-1.63867,10.933,10.933,0,0,1-3.75488-4.53614,15.876,15.876,0,0,1-1.35059-6.79882,16.10546,16.10546,0,0,1,1.36914-6.88575,10.93632,10.93632,0,0,1,3.7666-4.52636,9.99252,9.99252,0,0,1,5.75684-1.624,10.21257,10.21257,0,0,1,5.79785,1.63965,10.52418,10.52418,0,0,1,3.75488,4.53613,16.60132,16.60132,0,0,1,1.30469,6.88965A16.33563,16.33563,0,0,1,901.43741,208.41017Z"/><path d="M991.72891,191.89431l-18.13818-29.60718-13.77539-.01856-.084,63.43848,14.9541.01953.02636-19.75683q.01173-8.78907-.38867-15.17969-.09448-1.51245-.22363-3.00611l14.291,22.55494,5.98047.00781,14.78418-22.87085c-.1167,1.28393-.22168,2.56958-.30371,3.85913q-.416,6.52441-.42676,14.67969l-.02636,19.75683,14.95312.02051.084-63.43848L1010.204,162.336Z"/><path d="M1068.4169,206.458a8.39516,8.39516,0,0,1-.63965,3.30664,8.22294,8.22294,0,0,1-1.7705,2.626,7.966,7.966,0,0,1-2.72168,1.76368,9.31153,9.31153,0,0,1-3.48829.62988,8.04169,8.04169,0,0,1-4.3496-1.13867,6.93635,6.93635,0,0,1-2.71387-3.22071,12.43781,12.43781,0,0,1-.90039-4.98535L1051.87,177.708l-14.59082-.01953-.03907,29.7246a24.38382,24.38382,0,0,0,2.02442,10.42579,15.1034,15.1034,0,0,0,5.791,6.667,17.06426,17.06426,0,0,0,9.10547,2.32422,18.15825,18.15825,0,0,0,7.52344-1.57618,18.95666,18.95666,0,0,0,6.07813-4.25195,16.40718,16.40718,0,0,0,1.145-1.342l.39014,6.1936,13.68457.01758.06348-48.12207-14.59082-.01953Z"/><rect x="1069.7948" y="185.11671" width="67.06354" height="14.50001" transform="translate(909.47387 1295.43317) rotate(-89.92282)"/><polygon points="1141.787 165.683 1127.287 165.664 1127.271 177.808 1118.752 177.797 1118.735 190.484 1127.254 190.496 1127.207 225.931 1141.707 225.949 1141.754 190.515 1151.089 190.527 1151.105 177.84 1141.771 177.827 1141.787 165.683"/><rect x="1143.32411" y="194.67286" width="48.12211" height="14.50001" transform="translate(963.96863 1369.04869) rotate(-89.92668)"/><path d="M1173.79093,155.34963a9.43065,9.43065,0,0,0-6.34082-1.958,9.22947,9.22947,0,0,0-6.34668,2.07715,7.55165,7.55165,0,0,0-.05957,10.91992,9.60049,9.60049,0,0,0,6.38574,1.957,9.0513,9.0513,0,0,0,6.30176-2.07617,6.98127,6.98127,0,0,0,2.31835-5.43457A6.8444,6.8444,0,0,0,1173.79093,155.34963Z"/><path d="M1255.6835,179.293a20.16044,20.16044,0,0,0-14.22558-1.60449,20.91359,20.91359,0,0,0-4.71582,1.85156,19.16092,19.16092,0,0,0-4.127,2.98437,15.98762,15.98762,0,0,0-2.48486,3.00537,14.92009,14.92009,0,0,0-2.45361-3.91748,12.89814,12.89814,0,0,0-5.07031-3.49609,18.19963,18.19963,0,0,0-6.43262-1.0957,17.5899,17.5899,0,0,0-4.668.62793,18.96568,18.96568,0,0,0-4.44336,1.85254,16.05124,16.05124,0,0,0-3.81055,3.03027,15.25077,15.25077,0,0,0-1.01074,1.22656l-.29687-5.84961-13.77539-.01855-.06348,48.12207,14.59082.01953.03808-28.72852a7.75359,7.75359,0,0,1,2.40918-5.70605,8.34029,8.34029,0,0,1,2.72071-1.71875,9.33723,9.33723,0,0,1,3.49023-.62988,7.15326,7.15326,0,0,1,3.80469,1.00293,6.09715,6.09715,0,0,1,2.44238,2.90234,11.69075,11.69075,0,0,1,.81055,4.62305l-.03711,28.27539,14.59082.01953.03809-28.6377a8.05519,8.05519,0,0,1,.63769-3.26172,7.79194,7.79194,0,0,1,1.77149-2.53515,8.35657,8.35657,0,0,1,2.7207-1.71875,9.31417,9.31417,0,0,1,3.49023-.62891,7.54945,7.54945,0,0,1,3.93946.95606,5.94775,5.94775,0,0,1,2.39941,2.85742,12.26223,12.26223,0,0,1,.80859,4.80566l-.03711,28.18457,14.59083.01953.03906-29.36328a26.81574,26.81574,0,0,0-1.93457-10.78711A13.924,13.924,0,0,0,1255.6835,179.293Z"/><path d="M1313.1337,183.94631a21.763,21.763,0,0,0-7.28809-5.085,23.27645,23.27645,0,0,0-9.28711-1.82422,25.465,25.465,0,0,0-9.835,1.84375,22.5926,22.5926,0,0,0-7.75586,5.24707,24.1873,24.1873,0,0,0-5.08593,8.01367,27.55612,27.55612,0,0,0-1.82618,10.14648,24.74207,24.74207,0,0,0,3.2461,12.73829,23.30526,23.30526,0,0,0,9.1416,8.80273,28.48385,28.48385,0,0,0,13.86133,3.23535,28.94453,28.94453,0,0,0,6.57129-.76172,30.7382,30.7382,0,0,0,6.48242-2.30175,27.15,27.15,0,0,0,5.9873-3.9795l-6.78418-9.61523a20.74992,20.74992,0,0,1-5.21484,3.07422,15.4483,15.4483,0,0,1-5.48438.89843,16.74075,16.74075,0,0,1-7.65625-1.6416,11.39093,11.39093,0,0,1-4.88769-4.583,12.214,12.214,0,0,1-1.17188-2.947l33.03125.04468.09571-3.89648a25.36674,25.36674,0,0,0-1.43653-9.69922A22.264,22.264,0,0,0,1313.1337,183.94631Zm-26.2041,10.70508a8.96427,8.96427,0,0,1,3.76562-4.07325,12.09261,12.09261,0,0,1,6.02832-1.39746,10.001,10.001,0,0,1,4.53028,1.00293,8.45409,8.45409,0,0,1,3.21386,2.76856,8.10349,8.10349,0,0,1,1.39844,4.03515v.09082l-19.74658-.02636A12.10523,12.10523,0,0,1,1286.9296,194.65139Z"/><path d="M1360.98624,182.83376a17.21026,17.21026,0,0,0-2.35352-1.9978,20.88033,20.88033,0,0,0-5.43457-2.72657,20.68,20.68,0,0,0-17.49414,2.24219,22.46781,22.46781,0,0,0-7.71484,8.917,31.07935,31.07935,0,0,0-.03418,25.82813,22.23362,22.23362,0,0,0,7.64648,8.89062,19.59779,19.59779,0,0,0,11.09668,3.23243,21.23369,21.23369,0,0,0,6.38965-.94336,20.65823,20.65823,0,0,0,5.39648-2.53028,15.41749,15.41749,0,0,0,3.146-2.771l.38525,5.26806,13.50391.01856.08887-67.06348-14.59082-.01953Zm-.98731,26.18872a10.5139,10.5139,0,0,1-3.7666,4.52539,10.21543,10.21543,0,0,1-5.80176,1.62305,9.99493,9.99493,0,0,1-5.75293-1.6377,10.93589,10.93589,0,0,1-3.75488-4.53711,15.87151,15.87151,0,0,1-1.35058-6.79785,16.10989,16.10989,0,0,1,1.36914-6.88672,10.93331,10.93331,0,0,1,3.7666-4.52539,9.98564,9.98564,0,0,1,5.75683-1.625,10.21262,10.21262,0,0,1,5.79786,1.63965,10.52706,10.52706,0,0,1,3.75488,4.53711,16.59673,16.59673,0,0,1,1.30469,6.88867A16.34037,16.34037,0,0,1,1359.99893,209.02248Z"/><rect x="1371.78895" y="194.97755" width="48.12211" height="14.50001" transform="translate(1191.83644 1597.81765) rotate(-89.92668)"/><path d="M1402.25577,155.65432a9.43055,9.43055,0,0,0-6.34082-1.958,9.22947,9.22947,0,0,0-6.34668,2.07715,7.55168,7.55168,0,0,0-.05957,10.91992,9.60049,9.60049,0,0,0,6.38574,1.957,9.0513,9.0513,0,0,0,6.30176-2.07617,6.98131,6.98131,0,0,0,2.31836-5.43457A6.84439,6.84439,0,0,0,1402.25577,155.65432Z"/><path d="M1449.25137,184.07546a18.39953,18.39953,0,0,0-2.98681-3.07837,16.57835,16.57835,0,0,0-5.02539-2.77051,19.02573,19.02573,0,0,0-6.29688-1.00488,19.84193,19.84193,0,0,0-11.15234,3.20215,22.208,22.208,0,0,0-7.71484,8.82519,30.97637,30.97637,0,0,0-.03418,25.78321,22.52914,22.52914,0,0,0,7.55566,8.8916,19.73708,19.73708,0,0,0,16.98926,2.24316,19.69126,19.69126,0,0,0,5.25976-2.71191,18.09007,18.09007,0,0,0,3.08545-2.83545l-.00732,5.73974,14.68164.01953.06348-48.12207-14.41016-.01953Zm-5.02392,29.31811a10.6542,10.6542,0,0,1-5.80176,1.53321,10.25335,10.25335,0,0,1-5.66211-1.54883,10.36426,10.36426,0,0,1-3.75488-4.39942,17.44221,17.44221,0,0,1,.01855-13.5039,10.66579,10.66579,0,0,1,3.76661-4.43555,10.04249,10.04249,0,0,1,5.666-1.57812,10.42845,10.42845,0,0,1,5.79785,1.59375A10.55715,10.55715,0,0,1,1448.0585,195.5a17.45381,17.45381,0,0,1-.01855,13.5039A10.24568,10.24568,0,0,1,1444.22745,213.39357Z"/><path d="M1563.787,196.334q-.63867,2.26466-1.00293,4.03125-.36474,1.76661-.54785,3.2168c-.05127.40186-.09766.791-.14307,1.17676-.1958-.88574-.416-1.78955-.67041-2.71778q-.72363-2.6294-1.80469-5.62207l-9.21093-25.11621-12.3252-.01562-9.458,25.09082q-.8203,2.5371-1.36621,4.84668c-.29785,1.2583-.55761,2.60644-.7959,4.00635q-.31128-2.03284-.79-4.27979-.49657-2.313-1.126-4.5791l-9.47168-33.36328-15.67871-.02051,18.94726,63.46387,12.14453.01562,13.11817-34.24731,14.06933,34.28344,11.78125.01661,19.11524-63.41309-15.31543-.02051Z"/><rect x="1579.41005" y="195.25441" width="48.12211" height="14.50001" transform="translate(1398.80703 1805.70129) rotate(-89.92282)"/><path d="M1609.87686,155.93166a9.43065,9.43065,0,0,0-6.34082-1.958,9.22439,9.22439,0,0,0-6.34668,2.07617,7.55169,7.55169,0,0,0-.05957,10.91993,9.606,9.606,0,0,0,6.38574,1.958,9.05589,9.05589,0,0,0,6.30176-2.07617,6.98128,6.98128,0,0,0,2.31836-5.43457A6.84439,6.84439,0,0,0,1609.87686,155.93166Z"/><path d="M1652.62393,177.51174a14.84237,14.84237,0,0,0-7.16308,1.80273,19.544,19.544,0,0,0-7.05078,6.54273l-.28809-7.36792-13.77539-.01856-.06348,48.12207,14.59082.01953.03125-24.10644a10.54115,10.54115,0,0,1,.68555-3.89649,9.44034,9.44034,0,0,1,1.86133-2.9873,7.7882,7.7882,0,0,1,2.90332-1.94434,9.99906,9.99906,0,0,1,3.71582-.6748,14.74446,14.74446,0,0,1,3.48926.41211,8.98606,8.98606,0,0,1,2.6709,1.0459l4.00878-16.03516a25.0033,25.0033,0,0,0-2.58105-.63867A16.10583,16.10583,0,0,0,1652.62393,177.51174Z"/><path d="M1701.27921,184.46486a21.73537,21.73537,0,0,0-7.28809-5.085,23.2601,23.2601,0,0,0-9.28711-1.82519,25.48284,25.48284,0,0,0-9.835,1.84375,22.5926,22.5926,0,0,0-7.75586,5.24707,24.18749,24.18749,0,0,0-5.08594,8.01367,27.55591,27.55591,0,0,0-1.82617,10.14648,24.74194,24.74194,0,0,0,3.2461,12.73828,23.30535,23.30535,0,0,0,9.1416,8.80274,28.484,28.484,0,0,0,13.86133,3.23535,28.94445,28.94445,0,0,0,6.57128-.76172,30.73756,30.73756,0,0,0,6.48243-2.30176,27.14979,27.14979,0,0,0,5.9873-3.97949l-6.78418-9.61523a20.75027,20.75027,0,0,1-5.21484,3.07422,15.44856,15.44856,0,0,1-5.48438.89843,16.74073,16.74073,0,0,1-7.65625-1.6416,11.3909,11.3909,0,0,1-4.88769-4.583,12.2138,12.2138,0,0,1-1.17188-2.947l33.03125.04468.09571-3.89648a25.36674,25.36674,0,0,0-1.43653-9.69922A22.25088,22.25088,0,0,0,1701.27921,184.46486Zm-26.2041,10.7041a8.96419,8.96419,0,0,1,3.76562-4.07324,12.09261,12.09261,0,0,1,6.02832-1.39746,10.0007,10.0007,0,0,1,4.53027,1.00293,8.454,8.454,0,0,1,3.21387,2.76856,8.10349,8.10349,0,0,1,1.39844,4.03515v.09082l-19.74658-.02637A12.10481,12.10481,0,0,1,1675.07511,195.169Z"/><rect x="1690.48426" y="185.94435" width="67.06354" height="14.50001" transform="translate(1528.61572 1916.96175) rotate(-89.92668)"/><path d="M1781.02921,184.57033a21.763,21.763,0,0,0-7.28809-5.085,23.27665,23.27665,0,0,0-9.28711-1.82422,25.465,25.465,0,0,0-9.835,1.84375,22.59274,22.59274,0,0,0-7.75586,5.24707,24.17771,24.17771,0,0,0-5.08594,8.01367,27.556,27.556,0,0,0-1.82617,10.14649,24.74194,24.74194,0,0,0,3.2461,12.73828,23.30526,23.30526,0,0,0,9.1416,8.80273,28.484,28.484,0,0,0,13.86133,3.23536,28.94558,28.94558,0,0,0,6.57128-.76172,30.73868,30.73868,0,0,0,6.48243-2.30176,27.1505,27.1505,0,0,0,5.9873-3.97949l-6.78418-9.61524a20.75,20.75,0,0,1-5.21484,3.07422,15.44834,15.44834,0,0,1-5.48438.89844,16.74085,16.74085,0,0,1-7.65625-1.6416,11.391,11.391,0,0,1-4.88769-4.583,12.21413,12.21413,0,0,1-1.17188-2.947l33.03125.04468.09571-3.89649a25.36677,25.36677,0,0,0-1.43653-9.69922A22.26423,22.26423,0,0,0,1781.02921,184.57033Zm-26.2041,10.70508a8.96414,8.96414,0,0,1,3.76562-4.07324,12.09261,12.09261,0,0,1,6.02832-1.39746,10.0007,10.0007,0,0,1,4.53027,1.00293,8.44553,8.44553,0,0,1,3.21387,2.76855,8.10352,8.10352,0,0,1,1.39844,4.03516v.09082l-19.74658-.02637A12.09409,12.09409,0,0,1,1754.82511,195.27541Z"/><path d="M1829.76065,203.9385a15.379,15.379,0,0,0-4.88965-3.4502,46.60758,46.60758,0,0,0-7.33789-2.6377q-3.44238-1.00048-5.43554-1.68359a16.22972,16.22972,0,0,1-2.89746-1.22754,4.04656,4.04656,0,0,1-1.40333-1.36133,3.2522,3.2522,0,0,1-.49609-1.72265,3.13748,3.13748,0,0,1,1.4541-2.7627,4.964,4.964,0,0,1,1.76758-.72168,11.44473,11.44473,0,0,1,2.40234-.22363,12.73365,12.73365,0,0,1,3.98633.72949,21.81831,21.81831,0,0,1,7.87891,4.72363l7.624-8.50781a25.59416,25.59416,0,0,0-5.56836-3.90527,30.60382,30.60382,0,0,0-6.749-2.5459,31.29553,31.29553,0,0,0-7.61035-.917,25.09039,25.09039,0,0,0-7.207,1.0332,19.60756,19.60756,0,0,0-6.167,3.02734,15.75372,15.75372,0,0,0-4.26464,4.707,11.82163,11.82163,0,0,0-1.59473,6.06933,13.00672,13.00672,0,0,0,.99023,5.21192,14.26629,14.26629,0,0,0,2.80274,4.21875,18.35437,18.35437,0,0,0,5.11719,3.49511,40.10315,40.10315,0,0,0,7.38183,2.59278q2.98975.82031,4.8916,1.457a17.749,17.749,0,0,1,2.71778,1.09179,3.12666,3.12666,0,0,1,1.62793,2.81055,3.34625,3.34625,0,0,1-.36426,1.58594,3.50035,3.50035,0,0,1-1.04492,1.17676,5.05432,5.05432,0,0,1-1.67774.76855,8.66076,8.66076,0,0,1-2.26562.26856,19.24616,19.24616,0,0,1-6.70508-1.32325,17.565,17.565,0,0,1-6.33789-4.13183l-8.80078,7.60058a21.945,21.945,0,0,0,8.55566,6.084,31.97445,31.97445,0,0,0,12.458,2.28223,24.941,24.941,0,0,0,10.335-2.0254,17.28814,17.28814,0,0,0,7.12109-5.61035,13.64936,13.64936,0,0,0,2.59375-8.19726,13.061,13.061,0,0,0-.71875-4.39649A10.1359,10.1359,0,0,0,1829.76065,203.9385Z"/><path d="M1876.79,207.58107a10.15337,10.15337,0,0,0-2.16992-3.583,15.37713,15.37713,0,0,0-4.88965-3.44922,46.41131,46.41131,0,0,0-7.33789-2.6377q-3.44238-1.002-5.43555-1.68457a16.23038,16.23038,0,0,1-2.89746-1.22754,4.03787,4.03787,0,0,1-1.40332-1.36133,3.2489,3.2489,0,0,1-.49609-1.72168,3.13442,3.13442,0,0,1,1.4541-2.76269,4.94683,4.94683,0,0,1,1.76758-.72266,11.44466,11.44466,0,0,1,2.40234-.22363,12.73669,12.73669,0,0,1,3.98633.73047,21.79781,21.79781,0,0,1,7.8789,4.72265l7.624-8.50781a25.6277,25.6277,0,0,0-5.56836-3.90527,30.60459,30.60459,0,0,0-6.749-2.5459,31.296,31.296,0,0,0-7.61035-.916,25.05611,25.05611,0,0,0-7.207,1.03223,19.62809,19.62809,0,0,0-6.167,3.02735,15.7453,15.7453,0,0,0-4.26465,4.708,11.81558,11.81558,0,0,0-1.59473,6.06836,13.0148,13.0148,0,0,0,.99024,5.21289,14.27858,14.27858,0,0,0,2.80273,4.21875,18.37527,18.37527,0,0,0,5.11719,3.49512,40.24774,40.24774,0,0,0,7.38184,2.59277q2.98974.81885,4.8916,1.45606a17.74751,17.74751,0,0,1,2.71777,1.0918,3.12766,3.12766,0,0,1,1.62793,2.81054,3.34613,3.34613,0,0,1-.36426,1.58594,3.50024,3.50024,0,0,1-1.04492,1.17676,5.03473,5.03473,0,0,1-1.67773.76855,8.66079,8.66079,0,0,1-2.26563.26856,19.2462,19.2462,0,0,1-6.70508-1.32325,17.53944,17.53944,0,0,1-6.33789-4.13183l-8.80078,7.60058a21.945,21.945,0,0,0,8.55567,6.084,31.97437,31.97437,0,0,0,12.458,2.28223,24.94106,24.94106,0,0,0,10.335-2.0254,17.29418,17.29418,0,0,0,7.12109-5.60937,13.65452,13.65452,0,0,0,2.59375-8.19824A13.06126,13.06126,0,0,0,1876.79,207.58107Z"/><rect class="cls-1" x="414.78223" y="255.36221" width="1462.91506" height="105.10809" transform="translate(0.41166 -1.52836) rotate(0.07641)"/><path class="cls-2" d="M468.60926,296.74318q-.00293,2.07568.02051,3.84668.022,1.77246.09766,3.291.07323,1.51758.19726,2.98535.12452,1.46924.27442,2.98633c.02343.23633.05517.48486.082.72656l-16.55176-22.6123-7.69336-.01075-.04687,35.42871,8.35058.01172.01563-11.84375q.00145-1.26416-.02246-2.30273-.02344-1.03712-.07227-2.10156-.0498-1.062-.17481-2.37891-.1245-1.31542-.2998-3.01074c-.01562-.15576-.03369-.32739-.05078-.49243L469.13172,323.417l7.794.01074.04687-35.42871-8.35156-.01172Z"/><path class="cls-2" d="M503.1742,299.89113a10.18566,10.18566,0,0,0-1.66845-1.76318,9.285,9.285,0,0,0-2.80664-1.54688,10.60889,10.60889,0,0,0-3.51758-.56152,11.07733,11.07733,0,0,0-6.22754,1.78809,12.41611,12.41611,0,0,0-4.30859,4.92968,17.2977,17.2977,0,0,0-.01954,14.39844,12.582,12.582,0,0,0,4.22071,4.9668,11.02531,11.02531,0,0,0,9.4873,1.252,11.00439,11.00439,0,0,0,2.9375-1.51367,10.06244,10.06244,0,0,0,1.72315-1.63013l-.0044,3.25122,8.19922.01172.03613-26.875-8.04687-.01074Zm-2.80615,16.33057a5.94372,5.94372,0,0,1-3.24023.85547,5.71944,5.71944,0,0,1-3.16211-.86426,5.78655,5.78655,0,0,1-2.09766-2.458,9.74747,9.74747,0,0,1,.00977-7.541,5.9724,5.9724,0,0,1,2.10449-2.47754,5.61382,5.61382,0,0,1,3.16406-.88184,5.64759,5.64759,0,0,1,5.36035,3.374,9.74744,9.74744,0,0,1-.00976,7.541A5.72913,5.72913,0,0,1,500.36805,316.2217Z"/><polygon class="cls-2" points="528.697 289.839 520.599 289.828 520.59 296.611 515.832 296.605 515.822 303.689 520.58 303.696 520.554 323.485 528.652 323.496 528.679 303.707 533.891 303.714 533.901 296.629 528.688 296.622 528.697 289.839"/><path class="cls-2" d="M543.02821,282.97463a5.15661,5.15661,0,0,0-3.54395,1.15918,4.21862,4.21862,0,0,0-.0332,6.09863,5.36312,5.36312,0,0,0,3.56641,1.09375A5.05406,5.05406,0,0,0,546.536,290.167a3.89989,3.89989,0,0,0,1.2959-3.03516,3.82483,3.82483,0,0,0-1.26172-3.06445A5.27213,5.27213,0,0,0,543.02821,282.97463Z"/><rect class="cls-2" x="529.55554" y="306.02882" width="26.87502" height="8.09864" transform="translate(232.12952 852.62194) rotate(-89.91709)"/><path class="cls-2" d="M574.76747,297.94728a16.20289,16.20289,0,0,0-14.93067-.01953,13.74942,13.74942,0,0,0-5.16894,4.95313,13.87447,13.87447,0,0,0,5.13671,19.34082,16.20289,16.20289,0,0,0,14.93067.01953,13.54523,13.54523,0,0,0,5.14355-4.95313,14.73173,14.73173,0,0,0,.01953-14.374A13.5744,13.5744,0,0,0,574.76747,297.94728ZM572.747,313.68654a6.34326,6.34326,0,0,1-2.22949,2.47656,5.86381,5.86381,0,0,1-3.24024.90625,5.9876,5.9876,0,0,1-3.26367-.915,6.29007,6.29007,0,0,1-2.25-2.48243,7.31263,7.31263,0,0,1-.75391-3.59472,7.45838,7.45838,0,0,1,.76367-3.61817,6.23219,6.23219,0,0,1,2.25684-2.502,5.97429,5.97429,0,0,1,3.26563-.90723,5.862,5.862,0,0,1,3.23828.916,6.29738,6.29738,0,0,1,2.22265,2.50781,7.46516,7.46516,0,0,1,.75391,3.62012A7.32711,7.32711,0,0,1,572.747,313.68654Z"/><path class="cls-2" d="M608.24891,297.41017a9.81853,9.81853,0,0,0-5.11133-1.24707,10.23853,10.23853,0,0,0-4.25195.90528,11.0752,11.0752,0,0,0-3.4707,2.40039c-.17286.17871-.3252.365-.4795.55078L594.787,296.71l-7.69336-.01074-.03614,26.875q.65625.00146,1.66993.002,1.0122.00147,2.42968.00391l3.99805.00488.02149-16.09473a4.119,4.119,0,0,1,.38183-1.7705,4.86294,4.86294,0,0,1,1.03906-1.44141,4.38489,4.38489,0,0,1,1.57129-.96,5.784,5.784,0,0,1,1.97364-.32617,4.26916,4.26916,0,0,1,2.30175.48437,3.23524,3.23524,0,0,1,1.39063,1.5957,6.83974,6.83974,0,0,1,.45117,2.6836l-.02051,15.84179,8.14844.01075.02148-16.5a15.07639,15.07639,0,0,0-1.05371-5.999A7.74387,7.74387,0,0,0,608.24891,297.41017Z"/><path class="cls-2" d="M637.39784,300.07033a10.20008,10.20008,0,0,0-1.66846-1.76269,9.243,9.243,0,0,0-2.80664-1.54688,10.6084,10.6084,0,0,0-3.51758-.5625,11.08507,11.08507,0,0,0-6.22754,1.78809A12.41254,12.41254,0,0,0,618.869,302.917a17.29776,17.29776,0,0,0-.01953,14.39844,12.58568,12.58568,0,0,0,4.2207,4.96582,11.01556,11.01556,0,0,0,9.4873,1.25195,10.976,10.976,0,0,0,2.9375-1.51367,10.01367,10.01367,0,0,0,1.72315-1.62988l-.0044,3.25195,8.19922.01074.03614-26.875-8.04688-.01074Zm-2.80616,16.33008a5.95246,5.95246,0,0,1-3.24023.85644,5.71988,5.71988,0,0,1-3.16211-.86523,5.78655,5.78655,0,0,1-2.09766-2.458,9.74747,9.74747,0,0,1,.00977-7.541,5.9724,5.9724,0,0,1,2.10449-2.47754,5.61336,5.61336,0,0,1,3.16406-.88086,5.82636,5.82636,0,0,1,3.23829.88965,5.88776,5.88776,0,0,1,2.12207,2.4834,9.74747,9.74747,0,0,1-.00977,7.541A5.72907,5.72907,0,0,1,634.59168,316.40041Z"/><rect class="cls-2" x="637.94762" y="300.8921" width="37.45316" height="8.09766" transform="translate(350.86241 961.21003) rotate(-89.92399)"/><polygon class="cls-2" points="712.116 288.313 682.203 288.272 682.193 295.864 692.722 295.878 692.684 323.715 701.288 323.727 701.325 295.89 712.106 295.904 712.116 288.313"/><path class="cls-2" d="M730.42323,300.19435a10.20044,10.20044,0,0,0-1.66846-1.76269,9.26393,9.26393,0,0,0-2.80664-1.54688,10.60891,10.60891,0,0,0-3.51758-.5625,11.08507,11.08507,0,0,0-6.22754,1.78809,12.41254,12.41254,0,0,0-4.30859,4.93066,17.29776,17.29776,0,0,0-.01953,14.39844,12.58568,12.58568,0,0,0,4.2207,4.96582,11.01565,11.01565,0,0,0,9.48731,1.252,10.97661,10.97661,0,0,0,2.9375-1.51368,10.014,10.014,0,0,0,1.72314-1.62988l-.00439,3.252,8.19921.01075.03614-26.875-8.04688-.01075Zm-2.80616,16.33008a5.95252,5.95252,0,0,1-3.24023.85645,5.71989,5.71989,0,0,1-3.16211-.86524,5.78954,5.78954,0,0,1-2.09766-2.457,9.74746,9.74746,0,0,1,.00977-7.541,5.96918,5.96918,0,0,1,2.10449-2.47852,5.61337,5.61337,0,0,1,3.16407-.88086,5.82644,5.82644,0,0,1,3.23828.88965,5.88788,5.88788,0,0,1,2.12207,2.4834,9.74747,9.74747,0,0,1-.00977,7.541A5.72888,5.72888,0,0,1,727.61707,316.52443Z"/><path class="cls-2" d="M750.1327,283.251a5.15665,5.15665,0,0,0-3.54395,1.15917,4.21863,4.21863,0,0,0-.0332,6.09864,5.3632,5.3632,0,0,0,3.56641,1.09375,5.05871,5.05871,0,0,0,3.51855-1.15918,3.902,3.902,0,0,0,1.2959-3.03613,3.82274,3.82274,0,0,0-1.26172-3.06348A5.267,5.267,0,0,0,750.1327,283.251Z"/><rect class="cls-2" x="736.66003" y="306.3047" width="26.87502" height="8.09864" transform="translate(438.74885 1060.03925) rotate(-89.924)"/><polygon class="cls-2" points="786.711 312.69 781.539 300.653 776.782 300.647 771.793 312.757 767.323 296.939 758.769 296.929 767.591 323.815 773.562 323.823 779.118 310.206 784.597 323.838 790.568 323.846 799.766 296.983 791.212 296.972 786.711 312.69"/><path class="cls-2" d="M821.37342,300.31594a10.18572,10.18572,0,0,0-1.66845-1.76319,9.26384,9.26384,0,0,0-2.80665-1.54687,10.63365,10.63365,0,0,0-3.51757-.5625,11.07813,11.07813,0,0,0-6.22754,1.78906,12.40306,12.40306,0,0,0-4.3086,4.92969,17.29775,17.29775,0,0,0-.01953,14.39844,12.59554,12.59554,0,0,0,4.22071,4.96679,11.02538,11.02538,0,0,0,9.4873,1.252,11.03311,11.03311,0,0,0,2.9375-1.51368,10.062,10.062,0,0,0,1.72314-1.63012l-.00439,3.25122,8.19922.01074.03613-26.875-8.04687-.01074Zm-2.80615,16.32959a5.94416,5.94416,0,0,1-3.24023.85644,5.72735,5.72735,0,0,1-3.16211-.86426,5.79811,5.79811,0,0,1-2.09766-2.458,9.74738,9.74738,0,0,1,.00977-7.541,5.96018,5.96018,0,0,1,2.10449-2.47754,5.6061,5.6061,0,0,1,3.16406-.88183,5.8343,5.8343,0,0,1,3.23828.88964,5.89955,5.89955,0,0,1,2.12207,2.4834,9.74744,9.74744,0,0,1-.00976,7.541A5.71779,5.71779,0,0,1,818.56727,316.64553Z"/><path class="cls-2" d="M857.71668,297.74318a9.81852,9.81852,0,0,0-5.11132-1.24707,10.23854,10.23854,0,0,0-4.252.90528,11.0887,11.0887,0,0,0-3.4707,2.39941c-.17285.17871-.3252.36523-.47949.55127l-.14844-3.31006-7.69336-.00976-.03613,26.875q.65625,0,1.66992.002,1.0122.00146,2.42969.00293l3.998.00586.02149-16.09473a4.12683,4.12683,0,0,1,.38183-1.77148,4.8587,4.8587,0,0,1,1.03907-1.44043,4.37112,4.37112,0,0,1,1.57129-.96,5.78421,5.78421,0,0,1,1.97363-.32618,4.26931,4.26931,0,0,1,2.30176.48438,3.231,3.231,0,0,1,1.39062,1.5957,6.83419,6.83419,0,0,1,.45117,2.68262l-.0205,15.8418,8.14843.01074.02149-16.5a15.0717,15.0717,0,0,0-1.05371-5.998A7.74384,7.74384,0,0,0,857.71668,297.74318Z"/><path class="cls-2" d="M907.40125,309.93166a6.68263,6.68263,0,0,1-.916,3.46484,6.762,6.762,0,0,1-2.40723,2.42676,6.55631,6.55631,0,0,1-3.417.88086,6.2373,6.2373,0,0,1-3.28906-.88965,6.43833,6.43833,0,0,1-2.3252-2.43262,6.99253,6.99253,0,0,1-.85547-3.46777l.02832-21.3584-8.70507-.01172-.0293,21.81348a13.33661,13.33661,0,0,0,1.93945,7.18945,13.60168,13.60168,0,0,0,5.38379,4.94239,17.91637,17.91637,0,0,0,15.63867.0205,13.59741,13.59741,0,0,0,5.39746-4.92773,13.34078,13.34078,0,0,0,1.957-7.18457l.02929-21.81348-8.40137-.01074Z"/><path class="cls-2" d="M944.7704,297.85939a9.80928,9.80928,0,0,0-5.11133-1.24707,10.23857,10.23857,0,0,0-4.252.90528,11.07267,11.07267,0,0,0-3.4707,2.39941c-.17285.17871-.32519.36524-.47949.55127l-.14844-3.31006-7.69336-.00976-.03613,26.875q.65625,0,1.66992.002,1.01221.00147,2.42969.00293l3.99805.00586.02148-16.09473A4.12669,4.12669,0,0,1,932.08,306.168a4.85849,4.85849,0,0,1,1.03906-1.44043,4.37112,4.37112,0,0,1,1.57129-.96,5.78421,5.78421,0,0,1,1.97363-.32618,4.26931,4.26931,0,0,1,2.30176.48438,3.231,3.231,0,0,1,1.39062,1.5957,6.83419,6.83419,0,0,1,.45117,2.68262l-.0205,15.8418,8.14843.01074.02149-16.5a15.0717,15.0717,0,0,0-1.05371-5.99805A7.74392,7.74392,0,0,0,944.7704,297.85939Z"/><path class="cls-2" d="M960.27528,283.53127a5.15666,5.15666,0,0,0-3.54395,1.15918,4.21862,4.21862,0,0,0-.0332,6.09863,5.36312,5.36312,0,0,0,3.56641,1.09375,5.05867,5.05867,0,0,0,3.51855-1.15918,3.902,3.902,0,0,0,1.2959-3.03613,3.82277,3.82277,0,0,0-1.26172-3.06348A5.267,5.267,0,0,0,960.27528,283.53127Z"/><rect class="cls-2" x="946.80261" y="306.58498" width="26.87502" height="8.09864" transform="translate(648.33242 1270.46154) rotate(-89.924)"/><polygon class="cls-2" points="983.585 314.484 977.87 297.221 968.912 297.209 980.112 324.099 986.489 324.107 998.318 297.248 989.461 297.236 983.585 314.484"/><path class="cls-2" d="M1022.80946,300.56935a12.15632,12.15632,0,0,0-4.07031-2.83886,12.9752,12.9752,0,0,0-5.18653-1.01953,14.20867,14.20867,0,0,0-5.49316,1.03027,12.63353,12.63353,0,0,0-4.33106,2.92969,13.486,13.486,0,0,0-2.83984,4.47558,15.36943,15.36943,0,0,0-1.02051,5.667,13.80611,13.80611,0,0,0,1.8125,7.11328,13.00545,13.00545,0,0,0,5.10645,4.916,15.89946,15.89946,0,0,0,7.74023,1.80762,16.18727,16.18727,0,0,0,3.6709-.42481,17.138,17.138,0,0,0,3.61914-1.28613,15.18684,15.18684,0,0,0,3.34473-2.22265l-3.78907-5.37012a11.53916,11.53916,0,0,1-2.91211,1.7168,8.61845,8.61845,0,0,1-3.06347.502,9.35473,9.35473,0,0,1-4.27539-.916,6.36475,6.36475,0,0,1-2.72949-2.55957,6.80071,6.80071,0,0,1-.65479-1.64551l18.44678.02442.05371-2.17676a14.16252,14.16252,0,0,0-.80274-5.416A12.45334,12.45334,0,0,0,1022.80946,300.56935Zm-14.63477,5.97852a5.001,5.001,0,0,1,2.10352-2.27441,6.74545,6.74545,0,0,1,3.36621-.78028,5.59643,5.59643,0,0,1,2.53027.55957,4.70284,4.70284,0,0,1,1.79395,1.54688,4.52136,4.52136,0,0,1,.78222,2.2539v.04956l-11.02783-.01489A6.77842,6.77842,0,0,1,1008.17469,306.54787Z"/><path class="cls-2" d="M1047.20985,296.75588a8.27931,8.27931,0,0,0-3.999,1.00683,10.93321,10.93321,0,0,0-3.938,3.65381l-.16065-4.11474-7.69336-.00977-.03613,26.875,8.14844.01074.01758-13.46289a5.88611,5.88611,0,0,1,.38281-2.17578,5.28206,5.28206,0,0,1,1.03906-1.66894,4.37043,4.37043,0,0,1,1.62207-1.08594,5.59788,5.59788,0,0,1,2.0752-.377,8.249,8.249,0,0,1,1.94824.23046,5.03594,5.03594,0,0,1,1.49219.584l2.23925-8.95508a14.03846,14.03846,0,0,0-1.44238-.35645A8.81508,8.81508,0,0,0,1047.20985,296.75588Z"/><path class="cls-2" d="M1073.05262,311.418a8.57984,8.57984,0,0,0-2.72949-1.92774,26.17953,26.17953,0,0,0-4.09766-1.47265q-1.9248-.55958-3.03613-.94141a9.06892,9.06892,0,0,1-1.61914-.68457,2.269,2.269,0,0,1-.7832-.76074,1.81221,1.81221,0,0,1-.27637-.96094,1.75,1.75,0,0,1,.81152-1.543,2.76385,2.76385,0,0,1,.98731-.4043,6.38911,6.38911,0,0,1,1.34082-.124,7.1153,7.1153,0,0,1,2.22754.40723,12.19165,12.19165,0,0,1,4.39941,2.63769l4.25781-4.751a14.25491,14.25491,0,0,0-3.10937-2.18067,17.11821,17.11821,0,0,0-3.76856-1.42285,17.553,17.553,0,0,0-4.252-.51172,14.03143,14.03143,0,0,0-4.02441.57617,10.94146,10.94146,0,0,0-3.44336,1.69141,8.779,8.779,0,0,0-2.38184,2.62891,6.59775,6.59775,0,0,0-.89062,3.38965,7.25245,7.25245,0,0,0,.55273,2.91113,7.96477,7.96477,0,0,0,1.56641,2.35547,10.23145,10.23145,0,0,0,2.85644,1.95312,22.54586,22.54586,0,0,0,4.12305,1.44727q1.66992.45849,2.73144.81347a9.851,9.851,0,0,1,1.51758.60938,1.745,1.745,0,0,1,.90918,1.57031,1.86121,1.86121,0,0,1-.20312.88574,1.9458,1.9458,0,0,1-.583.65625,2.79988,2.79988,0,0,1-.9375.42969,4.81409,4.81409,0,0,1-1.26563.14942,10.73194,10.73194,0,0,1-3.74414-.73829,9.81551,9.81551,0,0,1-3.54-2.30761l-4.915,4.24511a12.2746,12.2746,0,0,0,4.77929,3.39746,17.85816,17.85816,0,0,0,6.957,1.27442,13.9247,13.9247,0,0,0,5.77149-1.13086,9.652,9.652,0,0,0,3.97754-3.13281,7.63048,7.63048,0,0,0,1.44824-4.5791,7.29016,7.29016,0,0,0-.40137-2.45508A5.638,5.638,0,0,0,1073.05262,311.418Z"/><rect class="cls-2" x="1070.5487" y="306.75002" width="26.87502" height="8.09864" transform="translate(771.74933 1394.37235) rotate(-89.924)"/><path class="cls-2" d="M1084.02137,283.69631a5.15658,5.15658,0,0,0-3.54394,1.15918,4.21861,4.21861,0,0,0-.03321,6.09863,5.36314,5.36314,0,0,0,3.56641,1.09375,5.0587,5.0587,0,0,0,3.51855-1.15918,3.902,3.902,0,0,0,1.2959-3.03613,3.82274,3.82274,0,0,0-1.26172-3.06348A5.267,5.267,0,0,0,1084.02137,283.69631Z"/><polygon class="cls-2" points="1105.979 290.609 1097.881 290.599 1097.872 297.38 1093.114 297.374 1093.104 304.459 1097.862 304.465 1097.836 324.256 1105.934 324.267 1105.961 304.476 1111.174 304.483 1111.183 297.398 1105.971 297.391 1105.979 290.609"/><path class="cls-2" d="M1129.13075,311.64357c-.27881.80371-.53369,1.5503-.77,2.25391-.07666-.26025-.15088-.519-.24366-.78711q-.4043-1.16309-.85742-2.17676l-5.65039-13.52148-9.16113-.01172,11.9541,26.14722-5.27441,12.37719,8.04785.01075,4.67187-11.63477,11.47461-26.85938-9.21191-.01269Z"/><path class="cls-2" d="M1183.48036,298.75978a16.19907,16.19907,0,0,0-14.93067-.0205,13.50413,13.50413,0,0,0-7.07715,12.13867,13.5016,13.5016,0,0,0,7.04493,12.15527,16.20674,16.20674,0,0,0,14.93066.02051,13.55245,13.55245,0,0,0,5.14355-4.95313,14.73177,14.73177,0,0,0,.01954-14.374A13.56728,13.56728,0,0,0,1183.48036,298.75978Zm-2.02051,15.73829a6.34333,6.34333,0,0,1-2.22949,2.47656,5.85593,5.85593,0,0,1-3.24024.90625,5.97933,5.97933,0,0,1-3.26367-.915,6.27693,6.27693,0,0,1-2.25-2.48242,7.31269,7.31269,0,0,1-.75391-3.59473,7.45823,7.45823,0,0,1,.76368-3.61816,6.24487,6.24487,0,0,1,2.25683-2.502,5.98256,5.98256,0,0,1,3.26563-.90722,5.86989,5.86989,0,0,1,3.23828.916,6.29744,6.29744,0,0,1,2.22265,2.50781,7.46759,7.46759,0,0,1,.75391,3.62012A7.32476,7.32476,0,0,1,1181.45985,314.49807Z"/><path class="cls-2" d="M1204.89344,295.37209a1.84694,1.84694,0,0,1,.8877-.93555,3.38714,3.38714,0,0,1,1.51855-.30176,3.58468,3.58468,0,0,1,1.11328.20411,8.10821,8.10821,0,0,1,1.26465.55859l2.33594-5.918a9.5353,9.5353,0,0,0-2.88281-1.57324,10.8278,10.8278,0,0,0-3.542-.56152,9.06559,9.06559,0,0,0-4.78515,1.23339,8.6269,8.6269,0,0,0-3.19238,3.36133,9.92491,9.92491,0,0,0-1.14551,4.75586l-.00244,2.07544-3.898-.00513-.00879,6.68067,3.898.00512-.02588,19.43531q.65771.00146,1.69531.00293,1.03711.00145,2.4043.00293l4.04883.00488.02587-19.43506,5.51612.00733.00879-6.68067-5.51612-.00732.00147-1.3667A3.83846,3.83846,0,0,1,1204.89344,295.37209Z"/><path class="cls-2" d="M1253.92274,306.1924a15.53647,15.53647,0,0,0-3.89453-2.23242,28.1289,28.1289,0,0,0-5.03321-1.47363,19.30073,19.30073,0,0,1-2.32714-.53516,9.5644,9.5644,0,0,1-1.97364-.8125,4.78509,4.78509,0,0,1-1.36523-1.08984,2.21555,2.21555,0,0,1-.50391-1.46875,2.38993,2.38993,0,0,1,.60938-1.64356,3.9432,3.9432,0,0,1,1.69726-1.06152,7.94789,7.94789,0,0,1,2.60645-.375,9.14142,9.14142,0,0,1,2.85937.459,10.14221,10.14221,0,0,1,2.62989,1.31934,11.19164,11.19164,0,0,1,2.2998,2.17969l5.32129-5.1045a13.23919,13.23919,0,0,0-3.05762-3.29394,13.09582,13.09582,0,0,0-4.2998-2.10645,21.5053,21.5053,0,0,0-5.9961-.74218,16.36368,16.36368,0,0,0-5.0625.77832,13.7362,13.7362,0,0,0-4.27929,2.2207,10.98286,10.98286,0,0,0-2.93946,3.43848,8.99172,8.99172,0,0,0-1.09472,4.376,10.86465,10.86465,0,0,0,.70312,4.02442,8.93435,8.93435,0,0,0,2.14746,3.1914,12.25261,12.25261,0,0,0,3.61426,2.3584,27.6015,27.6015,0,0,0,5.11035,1.626q1.062.20508,2.0752.48437a15.97754,15.97754,0,0,1,1.92187.66114,8.47613,8.47613,0,0,1,1.56836.83691,3.63766,3.63766,0,0,1,1.03516,1.06348,2.52029,2.52029,0,0,1,.37793,1.36718,2.45752,2.45752,0,0,1-.60938,1.69532,3.77357,3.77357,0,0,1-1.72168,1.03418,8.16471,8.16471,0,0,1-2.48144.35156,12.62127,12.62127,0,0,1-5.28711-1.1709,13.95329,13.95329,0,0,1-5.08008-4.5625l-5.2207,5.915a20.04466,20.04466,0,0,0,3.8916,3.77539,16.124,16.124,0,0,0,4.98145,2.43652,22.14694,22.14694,0,0,0,6.30078.84375,17.97878,17.97878,0,0,0,7.16308-1.332,11.31638,11.31638,0,0,0,4.915-3.89062,10.59685,10.59685,0,0,0,1.80567-6.249,9.3488,9.3488,0,0,0-.87989-4.17578A9.1431,9.1431,0,0,0,1253.92274,306.1924Z"/><path class="cls-2" d="M1272.119,304.97658a6.44015,6.44015,0,0,1,3.39258-.88086,7.36,7.36,0,0,1,2.42871.4082,8.01541,8.01541,0,0,1,2.124,1.11622,10.54042,10.54042,0,0,1,1.66895,1.5205l4.41015-5.25781a11.6156,11.6156,0,0,0-4.77832-3.5498,16.92824,16.92824,0,0,0-6.60351-1.27442,13.4835,13.4835,0,0,0-6.98731,1.81348,13.31819,13.31819,0,0,0-4.89062,4.97851,15.17015,15.17015,0,0,0-.01953,14.32325,13.30811,13.30811,0,0,0,4.87792,4.99218,13.46974,13.46974,0,0,0,6.98243,1.83106,17.01243,17.01243,0,0,0,6.55566-1.25586,11.57466,11.57466,0,0,0,4.78809-3.43555l-4.34571-5.32031a9.23272,9.23272,0,0,1-1.748,1.61719,6.99928,6.99928,0,0,1-2.05176.98535,8.54089,8.54089,0,0,1-2.42969.32422,6.20726,6.20726,0,0,1-3.33984-.91406,6.41362,6.41362,0,0,1-2.29981-2.4834,7.32292,7.32292,0,0,1-.83008-3.49414,7.725,7.725,0,0,1,.81446-3.5918A6.044,6.044,0,0,1,1272.119,304.97658Z"/><rect class="cls-2" x="1281.60144" y="307.03175" width="26.87502" height="8.09864" transform="translate(982.08428 1605.66853) rotate(-89.91709)"/><path class="cls-2" d="M1295.07411,283.97756a5.15661,5.15661,0,0,0-3.54395,1.15918,4.2186,4.2186,0,0,0-.0332,6.09863,5.36311,5.36311,0,0,0,3.5664,1.09375,5.05407,5.05407,0,0,0,3.51856-1.15918,3.89992,3.89992,0,0,0,1.2959-3.03516,3.82486,3.82486,0,0,0-1.26172-3.06445A5.27215,5.27215,0,0,0,1295.07411,283.97756Z"/><path class="cls-2" d="M1327.747,300.97658a12.14494,12.14494,0,0,0-4.07031-2.83984,13.009,13.009,0,0,0-5.18653-1.01953,14.22664,14.22664,0,0,0-5.49316,1.03027,12.6224,12.6224,0,0,0-4.33106,2.93066,13.48606,13.48606,0,0,0-2.83984,4.47559,15.3642,15.3642,0,0,0-1.02051,5.666,13.81215,13.81215,0,0,0,1.8125,7.11425,13.01219,13.01219,0,0,0,5.10645,4.916,15.89923,15.89923,0,0,0,7.74023,1.80664,16.132,16.132,0,0,0,3.6709-.42481,17.08411,17.08411,0,0,0,3.61914-1.28613,15.18216,15.18216,0,0,0,3.34473-2.22168l-3.78907-5.37012a11.59773,11.59773,0,0,1-2.91211,1.7168,8.66189,8.66189,0,0,1-3.06347.502,9.37991,9.37991,0,0,1-4.27539-.916,6.36685,6.36685,0,0,1-2.72949-2.56055,6.8018,6.8018,0,0,1-.65528-1.64551l18.44727.02442.05371-2.17676a14.16252,14.16252,0,0,0-.80274-5.416A12.44,12.44,0,0,0,1327.747,300.97658Zm-14.63477,5.97852a4.99146,4.99146,0,0,1,2.10352-2.27442,6.74555,6.74555,0,0,1,3.36621-.78125,5.59676,5.59676,0,0,1,2.53027.56055,4.70045,4.70045,0,0,1,1.79395,1.5459,4.52468,4.52468,0,0,1,.78222,2.2539v.04956l-11.02783-.01489A6.7583,6.7583,0,0,1,1313.11219,306.9551Z"/><path class="cls-2" d="M1357.51161,298.4092a9.81848,9.81848,0,0,0-5.11133-1.24707,10.23841,10.23841,0,0,0-4.252.90527,11.09139,11.09139,0,0,0-3.4707,2.40039c-.17285.17871-.32519.365-.47949.55078l-.14844-3.30957-7.69336-.01074-.03613,26.875q.65625.00147,1.66992.00293,1.01221.00147,2.42969.00293l3.998.00488.02148-16.09472a4.12232,4.12232,0,0,1,.38184-1.77051,4.86284,4.86284,0,0,1,1.03906-1.44141,4.38268,4.38268,0,0,1,1.57129-.959,5.76079,5.76079,0,0,1,1.97363-.32715,4.26931,4.26931,0,0,1,2.30176.48437,3.23525,3.23525,0,0,1,1.39062,1.59571,6.84278,6.84278,0,0,1,.45118,2.68359l-.02051,15.8418,8.14844.01074.02148-16.5a15.07153,15.07153,0,0,0-1.05371-5.998A7.74629,7.74629,0,0,0,1357.51161,298.4092Z"/><path class="cls-2" d="M1377.6454,305.11721a6.44,6.44,0,0,1,3.39257-.88086,7.3848,7.3848,0,0,1,2.42871.4082,8.0153,8.0153,0,0,1,2.124,1.11621,10.53995,10.53995,0,0,1,1.66894,1.52051l4.41016-5.25781a11.61562,11.61562,0,0,0-4.77832-3.54981,16.92814,16.92814,0,0,0-6.60352-1.27441,13.48355,13.48355,0,0,0-6.9873,1.81347,13.31831,13.31831,0,0,0-4.89063,4.97852,15.17013,15.17013,0,0,0-.01953,14.32324,13.30809,13.30809,0,0,0,4.87793,4.99219,13.46981,13.46981,0,0,0,6.98242,1.83105,16.9761,16.9761,0,0,0,6.55567-1.25586,11.57455,11.57455,0,0,0,4.78808-3.43554l-4.3457-5.32031a9.27118,9.27118,0,0,1-1.748,1.61816,7.02113,7.02113,0,0,1-2.05175.98437,8.50583,8.50583,0,0,1-2.42969.32422,6.20721,6.20721,0,0,1-3.33985-.91406,6.40679,6.40679,0,0,1-2.2998-2.4834,7.31888,7.31888,0,0,1-.83008-3.49316,7.72912,7.72912,0,0,1,.81446-3.59278A6.04383,6.04383,0,0,1,1377.6454,305.11721Z"/><path class="cls-2" d="M1417.12879,301.09572a12.14474,12.14474,0,0,0-4.07031-2.83984,13.00891,13.00891,0,0,0-5.18652-1.01953,14.20889,14.20889,0,0,0-5.49317,1.03125,12.60627,12.60627,0,0,0-4.33105,2.92968,13.4859,13.4859,0,0,0-2.83984,4.47559,15.364,15.364,0,0,0-1.02051,5.666,13.81193,13.81193,0,0,0,1.8125,7.11425,13.00538,13.00538,0,0,0,5.10644,4.916,15.89927,15.89927,0,0,0,7.74024,1.80664,16.1325,16.1325,0,0,0,3.6709-.4248,17.08434,17.08434,0,0,0,3.61914-1.28614,15.14758,15.14758,0,0,0,3.34472-2.22168l-3.78906-5.37011a11.598,11.598,0,0,1-2.91211,1.71679,8.64017,8.64017,0,0,1-3.06348.502,9.38,9.38,0,0,1-4.27539-.916,6.36691,6.36691,0,0,1-2.72949-2.56055,6.80146,6.80146,0,0,1-.65527-1.6455l18.44726.02441.05371-2.17676a14.16233,14.16233,0,0,0-.80273-5.416A12.44018,12.44018,0,0,0,1417.12879,301.09572Zm-14.63476,5.97852a4.99144,4.99144,0,0,1,2.10351-2.27442,6.74555,6.74555,0,0,1,3.36621-.78125,5.59677,5.59677,0,0,1,2.53028.56055,4.70042,4.70042,0,0,1,1.79394,1.5459,4.52469,4.52469,0,0,1,.78223,2.2539v.04957l-11.02783-.0149A6.75766,6.75766,0,0,1,1402.494,307.07424Z"/><path class="cls-2" d="M1460.099,301.1675a10.18536,10.18536,0,0,0-1.66846-1.76318,9.28476,9.28476,0,0,0-2.80664-1.54688,10.63366,10.63366,0,0,0-3.51758-.5625,11.07817,11.07817,0,0,0-6.22754,1.78906,12.4031,12.4031,0,0,0-4.30859,4.92969,17.29775,17.29775,0,0,0-.01953,14.39844,12.59544,12.59544,0,0,0,4.2207,4.96679,11.0253,11.0253,0,0,0,9.48731,1.252,11.005,11.005,0,0,0,2.9375-1.51367,10.06276,10.06276,0,0,0,1.72314-1.63013l-.00439,3.25122,8.19922.01074.03613-26.875-8.04688-.01074Zm-2.80615,16.33057a5.952,5.952,0,0,1-3.24024.85546,5.72747,5.72747,0,0,1-3.16211-.86425,5.78652,5.78652,0,0,1-2.09765-2.458,9.74744,9.74744,0,0,1,.00976-7.541,5.97254,5.97254,0,0,1,2.10449-2.47754,5.60622,5.60622,0,0,1,3.16407-.88183,5.82693,5.82693,0,0,1,3.23828.89062,5.891,5.891,0,0,1,2.12207,2.48242,9.7475,9.7475,0,0,1-.00977,7.541A5.7261,5.7261,0,0,1,1457.29286,317.49807Z"/><path class="cls-2" d="M1496.44227,298.59475a9.81843,9.81843,0,0,0-5.11133-1.24708,10.23853,10.23853,0,0,0-4.252.90528,11.08886,11.08886,0,0,0-3.4707,2.39941c-.17286.17871-.3252.36524-.4795.55127l-.14843-3.30908-7.69336-.01074-.03614,26.875q.65625.00146,1.66993.002,1.0122.00147,2.42968.00391l3.998.00488.02148-16.09473a4.11916,4.11916,0,0,1,.38184-1.7705,4.85056,4.85056,0,0,1,1.03906-1.44141,4.38489,4.38489,0,0,1,1.57129-.96,5.784,5.784,0,0,1,1.97363-.32617,4.26918,4.26918,0,0,1,2.30176.48437,3.23524,3.23524,0,0,1,1.39063,1.5957,6.83974,6.83974,0,0,1,.45117,2.6836l-.02051,15.8418,8.14844.01074.02148-16.5a15.07639,15.07639,0,0,0-1.05371-5.999A7.7438,7.7438,0,0,0,1496.44227,298.59475Z"/><path class="cls-2" d="M1525.5409,300.58229a9.57333,9.57333,0,0,0-1.31543-1.11547,11.62166,11.62166,0,0,0-3.0332-1.52149,11.541,11.541,0,0,0-9.77051,1.251,12.54594,12.54594,0,0,0-4.30859,4.98047,17.35817,17.35817,0,0,0-.01953,14.4248,12.4077,12.4077,0,0,0,4.27051,4.96484,10.94457,10.94457,0,0,0,6.19726,1.80567,11.86909,11.86909,0,0,0,3.56934-.52637,11.57261,11.57261,0,0,0,3.01367-1.41308,8.60626,8.60626,0,0,0,1.75635-1.54786l.21533,2.94239,7.541.00976.04981-37.45312-8.14844-.01074Zm-.55078,14.62671a5.88009,5.88009,0,0,1-2.10351,2.52735,5.71017,5.71017,0,0,1-3.24121.90722,5.573,5.573,0,0,1-3.21192-.916,6.09549,6.09549,0,0,1-2.09766-2.53321,8.85631,8.85631,0,0,1-.7539-3.79687,9.00691,9.00691,0,0,1,.76367-3.8457,6.11669,6.11669,0,0,1,2.10449-2.52832,5.5886,5.5886,0,0,1,3.21485-.90528,5.70735,5.70735,0,0,1,3.23828.91407,5.86539,5.86539,0,0,1,2.09668,2.53417,9.27141,9.27141,0,0,1,.72851,3.84766A9.14676,9.14676,0,0,1,1524.99012,315.209Z"/><polygon class="cls-2" points="1584.672 289.476 1554.759 289.437 1554.749 297.028 1565.277 297.042 1565.24 324.879 1573.844 324.891 1573.881 297.054 1584.662 297.067 1584.672 289.476"/><path class="cls-2" d="M1605.86219,301.3467a12.15625,12.15625,0,0,0-4.07031-2.83887,12.992,12.992,0,0,0-5.18652-1.01953,14.22691,14.22691,0,0,0-5.49317,1.03027,12.63339,12.63339,0,0,0-4.33105,2.92969,13.49578,13.49578,0,0,0-2.83985,4.47559,15.37306,15.37306,0,0,0-1.0205,5.667,13.812,13.812,0,0,0,1.8125,7.11426,13.012,13.012,0,0,0,5.10644,4.916,15.89916,15.89916,0,0,0,7.74024,1.80664,16.18653,16.18653,0,0,0,3.67089-.4248,17.1386,17.1386,0,0,0,3.61914-1.28613,15.18193,15.18193,0,0,0,3.34473-2.22168l-3.78906-5.3711a11.57486,11.57486,0,0,1-2.91211,1.71778,8.64064,8.64064,0,0,1-3.06348.501,9.35486,9.35486,0,0,1-4.27539-.916,6.3591,6.3591,0,0,1-2.72949-2.55957,6.801,6.801,0,0,1-.65479-1.64551l18.44678.02441.05371-2.17676a14.16236,14.16236,0,0,0-.80273-5.416A12.45347,12.45347,0,0,0,1605.86219,301.3467Zm-14.63476,5.97851a5.001,5.001,0,0,1,2.10351-2.27441,6.75573,6.75573,0,0,1,3.36621-.78027,5.59618,5.59618,0,0,1,2.53028.55957,4.7027,4.7027,0,0,1,1.79394,1.54687,4.5214,4.5214,0,0,1,.78223,2.25391v.04956l-11.02783-.01489A6.77787,6.77787,0,0,1,1591.22743,307.32521Z"/><path class="cls-2" d="M1623.622,305.44533a6.44015,6.44015,0,0,1,3.39258-.88086,7.36,7.36,0,0,1,2.42871.4082,8.01541,8.01541,0,0,1,2.124,1.11622,10.54042,10.54042,0,0,1,1.66895,1.5205l4.41015-5.25781a11.6156,11.6156,0,0,0-4.77832-3.5498,16.92824,16.92824,0,0,0-6.60351-1.27442,13.48348,13.48348,0,0,0-6.98731,1.81348,13.31819,13.31819,0,0,0-4.89062,4.97851,15.17018,15.17018,0,0,0-.01954,14.32325,13.30821,13.30821,0,0,0,4.87793,4.99218,13.46974,13.46974,0,0,0,6.98243,1.83106,17.01243,17.01243,0,0,0,6.55566-1.25586,11.57466,11.57466,0,0,0,4.78809-3.43555l-4.34571-5.32031a9.23272,9.23272,0,0,1-1.748,1.61719,6.99928,6.99928,0,0,1-2.05176.98535,8.50618,8.50618,0,0,1-2.42969.32422,6.20726,6.20726,0,0,1-3.33984-.91406,6.41362,6.41362,0,0,1-2.29981-2.4834,7.32292,7.32292,0,0,1-.83008-3.49414,7.725,7.725,0,0,1,.81446-3.5918A6.044,6.044,0,0,1,1623.622,305.44533Z"/><path class="cls-2" d="M1663.21082,298.8174a9.81852,9.81852,0,0,0-5.11132-1.24707,10.23872,10.23872,0,0,0-4.252.90527,11.08872,11.08872,0,0,0-3.4707,2.39942c-.13672.1416-.25439.29053-.37988.43652l.01855-13.77246-7.94629-.01074-.0498,37.45312q.65625,0,1.66992.002,1.01222.00145,2.42969.00293l3.998.00586.02149-16.09473a4.12663,4.12663,0,0,1,.38184-1.77148,4.85836,4.85836,0,0,1,1.03906-1.44043,4.37114,4.37114,0,0,1,1.57129-.96,5.78445,5.78445,0,0,1,1.97363-.32617,4.26931,4.26931,0,0,1,2.30176.48438,3.231,3.231,0,0,1,1.39062,1.5957,6.83419,6.83419,0,0,1,.45117,2.68262l-.0205,15.84179,8.14843.01075.02149-16.5a15.0717,15.0717,0,0,0-1.05371-5.99805A7.74379,7.74379,0,0,0,1663.21082,298.8174Z"/><path class="cls-2" d="M1695.3495,298.86037a9.80918,9.80918,0,0,0-5.11133-1.24707,10.23848,10.23848,0,0,0-4.252.90527,11.07263,11.07263,0,0,0-3.47071,2.39942c-.17285.17871-.32519.36523-.47949.55127l-.14844-3.31006-7.69336-.00977-.03613,26.875q.65625,0,1.66992.002,1.01221.00145,2.42969.00293l3.998.00585.02148-16.09472a4.12671,4.12671,0,0,1,.38184-1.77149,4.85862,4.85862,0,0,1,1.03906-1.44043,4.37126,4.37126,0,0,1,1.57129-.96,5.78421,5.78421,0,0,1,1.97363-.32617,4.26922,4.26922,0,0,1,2.30176.48438,3.231,3.231,0,0,1,1.39062,1.5957,6.83433,6.83433,0,0,1,.45118,2.68262l-.02051,15.84179,8.14844.01075.02148-16.5a15.07149,15.07149,0,0,0-1.05371-5.998A7.74378,7.74378,0,0,0,1695.3495,298.86037Z"/><path class="cls-2" d="M1726.45008,299.48342a16.20287,16.20287,0,0,0-14.93066-.01953,13.875,13.875,0,0,0-.03223,24.29394,16.20289,16.20289,0,0,0,14.93067.01953,13.55249,13.55249,0,0,0,5.14355-4.95312,14.73175,14.73175,0,0,0,.01953-14.374A13.567,13.567,0,0,0,1726.45008,299.48342Zm-2.02051,15.73828a6.32964,6.32964,0,0,1-2.22949,2.47656,5.8565,5.8565,0,0,1-3.24023.90723,5.98,5.98,0,0,1-3.26367-.916,6.27693,6.27693,0,0,1-2.25-2.48242,7.31031,7.31031,0,0,1-.75391-3.59473,7.46067,7.46067,0,0,1,.76367-3.61816,6.24486,6.24486,0,0,1,2.25684-2.502,5.98175,5.98175,0,0,1,3.26562-.90625,5.86918,5.86918,0,0,1,3.23828.915,6.31054,6.31054,0,0,1,2.22266,2.50781,7.46766,7.46766,0,0,1,.75391,3.62011A7.32462,7.32462,0,0,1,1724.42957,315.2217Z"/><rect class="cls-2" x="1724.13708" y="302.34035" width="37.45316" height="8.09766" transform="translate(1434.1627 2048.84485) rotate(-89.92399)"/><path class="cls-2" d="M1773.77137,299.54689a16.2067,16.2067,0,0,0-14.93066-.0205,13.50408,13.50408,0,0,0-7.07715,12.13867,13.50156,13.50156,0,0,0,7.04492,12.15527,16.199,16.199,0,0,0,14.93067.02051,13.55252,13.55252,0,0,0,5.14355-4.95313,14.73174,14.73174,0,0,0,.01953-14.374A13.56713,13.56713,0,0,0,1773.77137,299.54689Zm-2.02051,15.73828a6.34322,6.34322,0,0,1-2.22949,2.47657,5.86456,5.86456,0,0,1-3.24023.90722,5.98822,5.98822,0,0,1-3.26367-.916,6.27693,6.27693,0,0,1-2.25-2.48242,7.31269,7.31269,0,0,1-.75391-3.59473,7.45822,7.45822,0,0,1,.76367-3.61816,6.24489,6.24489,0,0,1,2.25684-2.502,5.97363,5.97363,0,0,1,3.26562-.90625,5.86121,5.86121,0,0,1,3.23828.915,6.29754,6.29754,0,0,1,2.22266,2.50781,7.4677,7.4677,0,0,1,.75391,3.62012A7.32458,7.32458,0,0,1,1771.75086,315.28517Z"/><path class="cls-2" d="M1805.08192,301.188a8.24489,8.24489,0,0,0-.792-.76612,10.63683,10.63683,0,0,0-2.124-1.36914,13.39683,13.39683,0,0,0-2.58008-.93945,11.80155,11.80155,0,0,0-2.91015-.3584,11.66867,11.66867,0,0,0-6.37988,1.78809,12.54121,12.54121,0,0,0-4.46,4.90429,15.28,15.28,0,0,0-1.62988,7.15918,14.28529,14.28529,0,0,0,1.63672,6.96192,12.07488,12.07488,0,0,0,4.49707,4.71191,12.49849,12.49849,0,0,0,6.502,1.70508,11.17352,11.17352,0,0,0,4.30274-.8291,10.56577,10.56577,0,0,0,3.41992-2.19727c.06543-.064.11572-.13232.17773-.19726l-.002,1.41211a8.29553,8.29553,0,0,1-.81543,3.87109,5.11691,5.11691,0,0,1-2.43262,2.29981,9.97067,9.97067,0,0,1-4.20214.75292,13.66719,13.66719,0,0,1-2.88379-.30761,15.70741,15.70741,0,0,1-2.70606-.83887,13.42718,13.42718,0,0,1-2.35254-1.24316l-2.84179,5.665a16.58756,16.58756,0,0,0,5.28515,2.4873,23.10586,23.10586,0,0,0,6.55371.96973,18.852,18.852,0,0,0,6.07422-.90235,12.33919,12.33919,0,0,0,4.585-2.70117,11.72989,11.72989,0,0,0,2.89063-4.34961,16.16976,16.16976,0,0,0,.99414-5.84472l.0332-24.69825-7.69238-.00976Zm-.86328,14.18994a5.90684,5.90684,0,0,1-2.22949,2.45215,6.40269,6.40269,0,0,1-3.418.88183,6.16861,6.16861,0,0,1-3.33887-.89062,5.965,5.965,0,0,1-2.19922-2.458,8.16546,8.16546,0,0,1-.7793-3.69531,8.3283,8.3283,0,0,1,.78907-3.71875,5.94476,5.94476,0,0,1,2.20605-2.47754,6.167,6.167,0,0,1,3.34082-.88086,6.403,6.403,0,0,1,3.416.88965,5.89844,5.89844,0,0,1,2.22265,2.4834,8.32889,8.32889,0,0,1,.7793,3.7207A8.16414,8.16414,0,0,1,1804.21864,315.378Z"/><path class="cls-2" d="M1838.27821,298.36818l-4.97949,14.21485c-.27881.80346-.5337,1.54931-.77,2.25366-.07666-.26-.15088-.5188-.24366-.78687q-.4043-1.16454-.85742-2.17773l-5.65039-13.52051-9.16113-.01269,11.9541,26.14795-5.27441,12.37646,8.04785.01074,4.67187-11.63379,11.47461-26.86035Z"/><circle class="cls-2" cx="218.69793" cy="249.99985" r="146.83451"/><circle class="cls-1" cx="218.69793" cy="249.99985" r="139.10326"/><circle class="cls-2" cx="218.69793" cy="250" r="93.77751"/><path class="cls-2" d="M136.05961,188.68684a8.87382,8.87382,0,0,0,.50715-3.45939,6.98832,6.98832,0,0,0-.965-3.17281,8.70171,8.70171,0,0,0-2.56926-2.66619,6.73636,6.73636,0,0,0-6.267-.91737,7.87672,7.87672,0,0,0-1.97279,1.036,5.318,5.318,0,0,0-.17525-2.831,6.61963,6.61963,0,0,0-2.58184-3.22782,6.43516,6.43516,0,0,0-3.55107-1.26682,6.29992,6.29992,0,0,0-3.60032,1.09708,12.65775,12.65775,0,0,0-3.41277,3.461l-6.97222,9.93809L127.0127,202.472l7.1975-10.25977A14.34188,14.34188,0,0,0,136.05961,188.68684Zm-15.3611-6.45774a4.16746,4.16746,0,0,1-.73138,1.62255l-2.81969,4.0205-4.47107-3.13666,2.68557-3.82717a3.95048,3.95048,0,0,1,2.08413-1.70534,2.45776,2.45776,0,0,1,2.12079.43223,2.77173,2.77173,0,0,1,.99124,1.15156A2.44081,2.44081,0,0,1,120.69851,182.2291Zm9.59178,5.24174a4.43643,4.43643,0,0,1-.78272,1.73048L126.056,194.1219l-4.82419-3.38447,3.33942-4.75974a5.22743,5.22743,0,0,1,1.40094-1.41614,2.84162,2.84162,0,0,1,1.52144-.49247,2.56033,2.56033,0,0,1,1.51411.50976,3.08273,3.08273,0,0,1,1.118,1.31293A2.73364,2.73364,0,0,1,130.29029,187.47084Z"/><path class="cls-2" d="M152.67286,172.51l-4.91744-7.012q-2.18785-3.1199-3.923-5.28627-.41061-.5126-.82883-1.00984l10.692,4.4336,2.12289-1.489-.46261-11.82476c.28265.49189.55875.98725.85554,1.47226q1.479,2.41732,3.50917,5.31247l4.91848,7.012,5.30723-3.72187-15.79071-22.51617-4.69634,3.29331.82044,15.08893-13.81451-5.97548-4.88915,3.429,15.78966,22.51565Z"/><path class="cls-2" d="M202.52,137.10089q-.06444,1.01848-.05868,1.80016.00471.78193.05868,1.413c.01467.17473.03038.34369.0461.51121-.16293-.35757-.33845-.72051-.5302-1.09066q-.54539-1.04913-1.2752-2.21981l-6.18007-9.81235L189.354,128.8126l-1.73625,11.49358q-.11787,1.14973-.13936,2.17843c-.01283.561-.00052,1.156.02541,1.77121q-.31591-.83419-.72221-1.74344-.42123-.93519-.89275-1.83894l-7.03928-13.28483-6.64844,1.41194,13.78412,25.18655,5.149-1.09341,2.4582-15.70793,9.071,13.25917,4.996-1.06092,2.35656-28.615-6.49441,1.37946Z"/><polygon class="cls-2" points="264.045 152.659 252.434 148.73 259.36 128.262 253.033 126.121 244.219 152.171 262.156 158.241 264.045 152.659"/><path class="cls-2" d="M279.05721,162.02469l8.1484,5.91012-1.50625,5.41084,5.46965,3.96706,7.40078-28.60455-4.579-3.3216-24.956,15.87191,5.34285,3.87486Zm9.34344-6.2542q.82674-.53988,1.60841-1.11436c.46445-.34106.93231-.68868,1.40252-1.03852-.18521.54172-.37093,1.08764-.56007,1.64993q-.33319.99491-.63288,1.94319-.29864.94776-.52915,1.80016l-1.04521,3.7552-5.11652-3.71106,3.21315-2.13455Q287.57078,156.31064,288.40065,155.77049Z"/><path class="cls-2" d="M328.95668,182.30716a12.64522,12.64522,0,0,0-2.1648-4.35161l-7.13254-9.82283L297.4067,184.29226l7.36411,10.14084a14.34336,14.34336,0,0,0,2.73377,2.89462,8.86366,8.86366,0,0,0,3.1068,1.60369,6.989,6.989,0,0,0,3.31427.11788,8.69841,8.69841,0,0,0,3.35618-1.56283,6.7346,6.7346,0,0,0,2.90352-5.62891,7.85746,7.85746,0,0,0-.33845-2.20246,5.32177,5.32177,0,0,0,2.73377.75385,6.61662,6.61662,0,0,0,3.89162-1.39361,6.44218,6.44218,0,0,0,2.35237-2.946A6.30266,6.30266,0,0,0,328.95668,182.30716Zm-14.30175,8.41979a2.55774,2.55774,0,0,1-.97447,1.26577,3.076,3.076,0,0,1-1.60527.63132,2.73123,2.73123,0,0,1-1.54659-.35784,4.43548,4.43548,0,0,1-1.38208-1.30192l-3.53221-4.864,4.76864-3.46253,3.41591,4.70473a5.23855,5.23855,0,0,1,.88436,1.78549A2.84519,2.84519,0,0,1,314.65493,190.72695Zm7.866-7.92155a2.4554,2.4554,0,0,1-1.09707,1.86513,2.77271,2.77271,0,0,1-1.41142.56373,2.44415,2.44415,0,0,1-1.40933-.33635,4.155,4.155,0,0,1-1.2972-1.2181l-2.88571-3.97387,4.41867-3.209,2.74635,3.78317A3.94633,3.94633,0,0,1,322.521,182.8054Z"/><path class="cls-2" d="M161.08165,345.06881q-.93362,1.314-1.71214,2.44667-.77959,1.13322-1.41247,2.12813-.635.9957-1.21338,1.982-.58.98627-1.16518,2.01549c-.09116.16032-.18259.3319-.274.49733l-.35259-21.75034-4.87133-3.45468-15.91017,22.43077,5.28732,3.75069,5.31876-7.49876q.56739-.8,1.01744-1.469.4495-.668.89589-1.36426.4448-.69549.95561-1.58536.51081-.88961,1.15994-2.04326c.05973-.106.12548-.22292.18887-.3353L149.455,362.206l4.93526,3.50025,15.91016-22.43077-5.28732-3.75016Z"/><polygon class="cls-2" points="177.04 352.89 184.875 355.213 178.731 375.929 185.134 377.827 191.278 357.111 199.301 359.491 200.975 353.841 178.715 347.24 177.04 352.89"/><path class="cls-2" d="M227.10923,354.49347l.5061,16.57133a5.18715,5.18715,0,0,1-.6245,2.71125,5.25563,5.25563,0,0,1-1.8075,1.94214,5.095,5.095,0,0,1-2.629.76806,4.83842,4.83842,0,0,1-2.57345-.60931,4.98644,4.98644,0,0,1-1.86408-1.8295,5.41761,5.41761,0,0,1-.75024-2.66934l-.50715-16.57133-6.75427.20642.51762,16.925a10.36493,10.36493,0,0,0,1.68281,5.52989,10.56486,10.56486,0,0,0,4.29922,3.70091,13.90574,13.90574,0,0,0,12.1338-.37145,10.56542,10.56542,0,0,0,4.06556-3.95659,10.35868,10.35868,0,0,0,1.34121-5.6221l-.51762-16.925Z"/><path class="cls-2" d="M267.72918,360.19363a7.09021,7.09021,0,0,0-2.66357-1.61313,12.03688,12.03688,0,0,0-3.43057-.60826,21.9195,21.9195,0,0,0-4.06451.24415,14.90414,14.90414,0,0,1-1.84.22056,7.3985,7.3985,0,0,1-1.65452-.07544,3.7079,3.7079,0,0,1-1.28358-.438,1.72032,1.72032,0,0,1-.75339-.9399,1.8544,1.8544,0,0,1,.01363-1.36112,3.06778,3.06778,0,0,1,.96085-1.22019,6.16469,6.16469,0,0,1,1.8054-.95929,7.10724,7.10724,0,0,1,2.20986-.41493,7.86072,7.86072,0,0,1,2.26749.27348,8.64336,8.64336,0,0,1,2.25178.9881l2.54726-5.126a9.87479,9.87479,0,0,0-6.792-2.01339,16.696,16.696,0,0,0-4.5748,1.03263A12.72192,12.72192,0,0,0,249.234,350.08a10.66607,10.66607,0,0,0-2.54307,2.74583,8.548,8.548,0,0,0-1.24481,3.28283,6.98319,6.98319,0,0,0,.35,3.48454,8.43576,8.43576,0,0,0,1.56964,2.75525,6.95773,6.95773,0,0,0,2.4058,1.76768,9.56134,9.56134,0,0,0,3.26083.77382,21.45518,21.45518,0,0,0,4.15986-.15351q.82988-.12966,1.64194-.19123a12.57254,12.57254,0,0,1,1.578-.02252,6.63627,6.63627,0,0,1,1.36531.20013,2.82811,2.82811,0,0,1,1.03525.50557,1.95363,1.95363,0,0,1,.635.89956,1.90389,1.90389,0,0,1,0,1.3978,2.92912,2.92912,0,0,1-.986,1.20814,6.31816,6.31816,0,0,1-1.72053.90794,9.79535,9.79535,0,0,1-4.16929.53229,10.827,10.827,0,0,1-4.90905-1.99872l-2.26121,5.69126a15.59231,15.59231,0,0,0,3.834,1.73676,12.53634,12.53634,0,0,0,4.27931.47153,17.15492,17.15492,0,0,0,4.82314-1.03787,13.94235,13.94235,0,0,0,4.8839-2.85323,8.78323,8.78323,0,0,0,2.56822-4.13209,8.22485,8.22485,0,0,0-.32168-5.03847A7.23115,7.23115,0,0,0,267.72918,360.19363Z"/><polygon class="cls-2" points="292.042 332.418 288.517 327.696 269.912 341.587 273.438 346.309 279.986 341.42 292.914 358.734 298.265 354.738 285.337 337.424 292.042 332.418"/><path class="cls-1" d="M218.69783,339.431a89.431,89.431,0,1,1,89.43126-89.43126A89.53227,89.53227,0,0,1,218.69783,339.431Zm0-176.17957a86.74857,86.74857,0,1,0,86.74883,86.74831A86.84657,86.84657,0,0,0,218.69783,163.25143Z"/><path class="cls-1" d="M218.69783,399.51689a149.51691,149.51691,0,1,1,105.72492-43.79275A148.53664,148.53664,0,0,1,218.69783,399.51689Zm0-293.66893A144.1516,144.1516,0,1,0,320.6291,148.069,143.20814,143.20814,0,0,0,218.69783,105.848Z"/><path class="cls-2" d="M130.26934,332.44358A121.04907,121.04907,0,0,1,106.1479,205.76585l2.49592.98181a118.36866,118.36866,0,0,0,23.587,123.86642Z"/><path class="cls-2" d="M307.12632,332.44358l-1.96153-1.8295a118.36774,118.36774,0,0,0,23.58757-123.86642l2.49592-.98181a121.04818,121.04818,0,0,1-24.122,126.67773Z"/><path class="cls-1" d="M215.30836,278.35933v40.54461a.39712.39712,0,0,1-.41651.3962A68.17356,68.17356,0,0,1,172.792,200.62335a.39584.39584,0,0,1,.65927.29534v49.29312A2.91284,2.91284,0,0,0,174.878,252.717l39.00358,23.13708A2.91284,2.91284,0,0,1,215.30836,278.35933Z"/><path class="cls-1" d="M222.08751,278.35933v40.54461a.39711.39711,0,0,0,.4165.3962,68.17357,68.17357,0,0,0,42.09983-118.67679.39585.39585,0,0,0-.65928.29534v49.29312a2.91283,2.91283,0,0,1-1.42673,2.50522l-39.00359,23.13708A2.91285,2.91285,0,0,0,222.08751,278.35933Z"/><path class="cls-1" d="M256.34266,202.18823l-36.853-21.27705a1.58364,1.58364,0,0,0-1.58356,0l-36.85281,21.27705a1.58349,1.58349,0,0,0-.79186,1.37138v42.5541a1.58348,1.58348,0,0,0,.79186,1.37134l36.85281,21.277a1.58364,1.58364,0,0,0,1.58356,0l36.853-21.277a1.58334,1.58334,0,0,0,.79171-1.37134v-42.5541A1.58335,1.58335,0,0,0,256.34266,202.18823ZM224.539,244.80531a6.08635,6.08635,0,1,1-5.74184-7.762A6.11684,6.11684,0,0,1,224.539,244.80531Zm11.66459-10.58508c-2.33188,2.61213-5.92934,2.76192-8.84426.36818-5.72789-4.70376-11.77926-4.6925-17.35859.0325a6.10761,6.10761,0,1,1-8.1654-9.07718,24.27989,24.27989,0,0,1,33.57884-.13457C238.19942,227.96955,238.4855,231.66406,236.20361,234.22023Zm13.188-13.28724a6.01583,6.01583,0,0,1-7.65609,1.72453,9.43112,9.43112,0,0,1-1.80877-1.37015c-12.53218-11.54247-29.913-11.55466-42.44027-.01839-3.94165,3.62989-9.41443,2.24318-10.57285-2.69542a6.01687,6.01687,0,0,1,2.06082-5.97947,42.2543,42.2543,0,0,1,29.7166-12.13518c11.59054.19168,21.64673,4.16576,29.93891,12.37231A5.93521,5.93521,0,0,1,249.39165,220.933Z"/></svg>